<?xml version="1.0" encoding="utf-8" ?>
<svg xmlns="http://www.w3.org/2000/svg" xmlns:xlink="http://www.w3.org/1999/xlink" width="800" height="801">
	<path d="M185.345 389.762C187.229 390.624 188.841 391.069 189.584 393.183C190.811 396.67 189.52 401.39 189.004 404.99L188.799 403.32L188.557 401.673C187.629 399.311 188.548 396.516 187.983 393.851C187.525 393.401 187.166 393.083 186.923 392.473L186.801 392.091L185.518 391.691L186.015 391.504L185.345 389.762Z"/>
	<path d="M732.881 541.386L764.003 541.336L763.954 572.84L745.282 572.866C741.233 572.848 737.114 572.987 733.087 572.528C732.392 570.389 732.876 566.5 732.873 564.156L732.881 541.386Z"/>
	<path d="M736.436 542.278L754.075 542.256C756.008 542.255 758.876 541.859 760.685 542.474L757.946 542.474L757.262 542.767L756.577 542.474L756.186 542.865C758.177 543.456 760.12 542.79 761.858 544.122L762.222 546.664C762.433 549.33 762.68 567.964 761.914 569.656C761.755 570.008 761.41 570.24 761.158 570.532C759.695 570.802 758.257 570.807 756.773 570.834L756.896 571.312C757.811 571.347 758.638 571.322 759.515 571.612L738.973 571.616L737.408 571.225L736.759 570.957C735.949 570.73 735.102 570.177 734.364 570.071L733.985 570.05C733.181 568.489 733.671 565.17 733.67 563.315L733.688 544.234L735.059 543.254C735.945 542.851 735.392 543.334 736.079 542.655L736.436 542.278Z"/>
	<path d="M732.844 665.32L764.035 665.432L763.919 697.106L733.056 697.105C732.258 695.158 732.727 690.946 732.717 688.779L732.844 665.32Z"/>
	<path d="M738.386 667.043L756.603 667.046C758.288 667.123 760.052 667.487 761.775 667.589C762.538 671.59 762.35 675.612 762.33 679.666L761.992 693.639C761.104 694.695 760.827 694.577 759.511 694.817L759.515 695.986L758.24 695.99L735.648 695.99L735.492 694.888C734.952 694.794 734.497 694.614 733.985 694.424C733.304 692.341 733.682 689.448 733.677 687.223L733.994 667.993C734.879 667.63 735.658 667.326 736.624 667.275C737.486 667.23 737.245 667.285 738.001 667.133L738.386 667.043Z"/>
	<path d="M702.087 800.609C696.377 798.44 691.418 796.575 687.02 792.166C681.74 786.871 678.901 781.321 677.414 774.011C676.791 770.95 676.446 766.862 677.559 763.965C678.222 762.239 677.752 759.832 677.942 757.978C678.008 757.333 678.264 755.919 678.652 755.435C678.93 755.088 679.779 754.915 680.03 754.564C680.563 753.817 680.846 752.334 681.24 751.449C681.882 750.009 683.228 748.438 684.219 747.222L684.609 746.651C685.442 745.465 687.01 744.446 688.151 743.533C691.97 740.474 696.468 737.676 701.416 736.919L702.983 736.734L703.742 736.644C710.629 735.866 717.431 736.61 724.069 738.428C726.99 739.227 730.122 740.236 732.518 742.147C734.878 744.029 737.686 746.632 739.225 749.252C741.231 752.668 742.269 757.477 743.283 761.313C743.881 763.573 743.092 765.753 742.677 767.977C741.571 773.898 740.16 781.005 736.952 786.193C732.573 793.275 726.63 797.462 719.063 800.627L718.689 800.813C716.766 801.518 704.044 801.305 702.087 800.609Z"/>
	<path d="M59.5252 100.952C64.2658 100.736 68.892 103.397 73.3496 104.781C79.2759 106.621 86.9228 107.92 92.1271 111.371C93.1301 112.035 94.0573 112.996 94.601 114.079C97.359 119.573 98.3221 126.649 100.049 132.534C101.216 136.512 102.787 140.272 103.755 144.321C104.697 148.263 104.573 152.192 104.916 156.206C105.193 159.443 105.799 162.735 105.967 165.965C106.054 167.623 105.381 169.552 104.575 170.99C103.14 173.551 100.811 175.985 99.0482 178.367C95.8662 182.667 92.8235 187.45 89.3401 191.471C85.4274 195.987 78.9809 195.302 73.4488 195.698C70.371 195.977 65.0223 196.925 62.2237 195.574C58.6794 193.863 54.8057 188.785 52.0233 185.95C47.4175 181.256 41.3234 176.344 37.779 170.864C36.0872 168.249 35.1099 165.087 33.7593 162.275C31.7348 158.06 29.3301 153.983 27.7597 149.563C27.4814 148.78 26.9928 147.678 26.8963 146.862C26.7414 145.554 27.7941 142.622 28.0942 141.308L31.5503 127.19C32.1828 124.822 32.7058 121.982 33.8645 119.815C35.3732 116.993 39.2609 114.752 41.8236 112.935L52.1193 105.558C54.5578 103.876 56.6279 101.816 59.5252 100.952ZM63.9137 120.382C61.2983 122.396 58.5509 124.172 55.8072 126C54.3897 126.945 52.5921 127.937 51.6243 129.367C50.213 131.452 50.0016 134.652 49.6301 137.073L48.5446 143.147C48.3012 144.928 47.9676 147.304 48.3475 149.072C49.045 152.317 51.1656 155.93 52.457 159.037C53.1192 160.63 53.6279 162.817 54.6266 164.197C56.2917 166.498 59.0473 168.409 61.1253 170.39C62.8293 172.015 65.0243 174.826 67.0905 175.915C67.8306 176.305 68.7012 176.371 69.5182 176.449L70.6197 176.513L76.3902 176.292L85.7687 163.779C86.4133 162.638 86.0847 159.676 86.0662 158.358C85.998 153.5 86.0169 148.115 84.8526 143.379C83.4012 137.474 80.8546 131.711 79.2455 125.782C74.215 124.396 68.5807 122.715 63.9137 120.382Z"/>
	<path d="M74.2391 4.02L75.5012 3.99168C76.5219 4.02161 77.6129 4.18588 78.5423 4.62227C81.7433 6.1252 85.0219 8.94468 87.9474 10.9942C92.5427 14.2136 98.6269 17.4537 102.298 21.6295C103.15 22.5988 103.837 23.8545 104.187 25.1006C105.171 28.6121 105.463 32.341 106.197 35.9121L108.245 44.6358C108.593 46.082 109.142 47.7291 108.981 49.2249C108.807 50.8401 107.753 52.5967 107.034 54.0374L103.534 60.8563C100.762 65.7033 98.5162 71.4205 95.2219 75.8518C92.453 79.5762 88.4422 82.1474 84.9441 85.1267L71.163 96.7304C68.4433 98.8073 66.7145 99.0939 63.4109 98.6565L52.0807 97.4877C49.1842 97.2329 45.8354 97.3454 43.3015 95.7511C38.9862 93.0359 35.9041 85.4964 33.2843 81.156C31.11 77.5535 27.8187 73.7631 27.0921 69.5218C26.4457 65.7481 27.4841 61.1189 27.7511 57.2981C27.9912 53.8631 27.6894 49.941 28.5007 46.605C29.6171 42.014 32.0745 37.5879 33.8386 33.2337C36.0753 27.7132 37.5392 20.6124 41.0477 15.778C41.8101 14.7275 43.0486 13.8681 44.2054 13.312C49.5472 10.7439 56.0241 9.73577 61.6998 8.0334C65.901 6.77331 69.9246 4.848 74.2391 4.02ZM74.7088 23.906C70.3339 24.9828 66.2357 26.5683 61.9688 27.9646C60.4319 28.4676 58.5585 28.7454 57.1147 29.4253C56.5778 29.6781 56.3828 30.0304 56.0823 30.5188C54.7254 32.7237 53.9626 35.2197 52.9319 37.5808C51.6294 40.5647 49.9286 43.5516 48.9351 46.648C48.3068 48.6063 46.6282 62.7508 47.1677 64.3164L47.4592 64.898L52.2971 74.2227C52.7205 75.0286 53.4689 76.9572 54.3002 77.2826C56.847 78.2798 59.9813 78.4282 62.6781 78.6869C64.2307 78.7697 65.0341 79.0294 66.3081 77.9763L73.441 71.4664C75.1977 69.9212 77.351 68.4697 78.8881 66.7285C80.7447 64.6255 88.6496 50.6473 88.7203 48.5668C88.8251 45.4842 87.6262 41.8808 87.3851 38.7202C87.2646 37.14 87.6563 33.6146 87.1674 32.3384C87.0301 31.9798 85.9045 31.1572 85.5748 30.8798C82.9573 28.6779 77.9808 24.4334 74.7088 23.906Z"/>
	<path d="M181.469 0L198.146 0C199.438 1.71066 202.04 1.61391 204.01 2.02169L211.75 3.84519C216.515 5.18261 220.881 7.45398 225.761 8.52828C230.475 9.56606 235.692 9.45937 240.288 10.8252C242.083 11.3587 244.041 12.5295 244.898 14.2756C245.117 14.7228 245.228 15.2104 245.292 15.7012C245.666 18.571 244.487 21.6201 243.732 24.3719C242.545 28.6961 241.529 33.1016 240.085 37.3513C238.956 40.6755 237.241 44.0721 236.544 47.5064C234.698 56.5983 234.531 66.258 234.059 75.4849L233.092 92.8894C232.893 101.742 234.302 111.061 235.36 119.864C236.083 125.872 236.58 132.17 237.918 138.061C239.339 144.317 242.105 150.394 243.067 156.711C243.665 160.643 243.677 164.71 243.716 168.681C243.735 170.554 243.931 172.802 243.162 174.545C242.477 176.099 241.028 176.886 239.494 177.436C236.029 178.676 231.319 178.725 227.607 179.331C220.927 180.421 213.811 182.152 207.427 184.413C203.966 185.638 199.969 187.121 196.856 189.068C194.193 190.735 192.07 193.538 189.04 194.596C181.474 197.236 178.977 182.441 175.598 177.942C174.467 176.436 172.758 175.066 171.367 173.78C169.595 172.142 167.855 170.356 165.897 168.944C162.042 166.165 157.69 164.218 153.522 161.983L142.19 155.618C140.258 154.567 138.429 153.48 136.835 151.948C134.287 149.496 132.408 146.413 130.289 143.606C128.638 141.419 125.807 138.456 125.169 135.814C124.358 132.455 126.253 126.744 127.121 123.453C128.436 118.465 129.953 113.225 130.779 108.143L132.814 92.0145L135.726 75.3685C136.542 69.8297 137.081 64.1644 138.23 58.6863C139.182 54.1541 140.751 49.7216 142.004 45.2638C142.828 42.3321 143.406 39.2433 144.411 36.3735C145.279 33.8946 147.076 32.051 148.569 29.9514L154.959 20.9915C160.426 13.7394 169.501 10.5481 176.471 4.91959C178.181 3.53897 180.119 2.17816 181.299 0.291179L181.469 0Z"/>
	<path d="M308.955 2.83874C310.67 3.00391 312.193 3.38111 313.656 4.32382C317.955 7.09349 321.279 11.441 325.513 14.3853C330.747 18.0254 338.484 20.9174 342.494 25.8109C345.116 29.0112 347.374 32.4496 349.801 35.7869C351.403 37.9892 353.539 40.2259 354.604 42.7302C355.884 45.7389 356.513 49.2233 357.425 52.366C358.7 56.7588 360.252 61.0144 361.202 65.5072C361.938 68.9912 362.203 72.4916 362.795 75.9873L366.948 100.709C367.617 105.543 367.974 110.607 368.901 115.378C370.184 121.977 372.409 128.374 373.794 134.965C374.216 136.973 374.994 139.539 374.698 141.583C374.641 141.977 374.563 142.338 374.445 142.719C374.318 143.131 374.15 143.54 373.967 143.93C372.786 146.441 370.965 148.468 369.393 150.721C366.823 154.404 364.509 157.586 360.976 160.441C358.735 162.253 355.964 163.358 353.447 164.722L346.015 169.054C341.676 171.405 336.9 173.651 332.918 176.594C330.373 178.475 327.909 181.161 325.617 183.388C320.808 188.06 321.054 197.677 315.11 201.425C313.58 202.39 312.27 201.875 310.625 201.601C308.189 199.817 305.92 197.705 303.354 196.118C301.121 194.737 298.523 193.811 296.094 192.839C289.66 190.265 282.606 188.244 275.752 187.116L264.824 185.641C262.212 185.16 258.409 184.28 256.926 181.879C255.946 180.293 256.147 178.348 256.155 176.56C256.17 173.066 256.122 169.532 256.814 166.095L259.946 152.126C260.57 149.849 261.588 147.685 262.015 145.354C263.88 135.191 264.653 124.877 265.454 114.596C265.725 111.112 266.367 107.584 266.461 104.097C266.589 99.3411 265.925 94.5081 265.675 89.7605C265.04 77.6697 265.043 64.9683 262.272 53.1358C261.684 50.6262 260.342 48.3459 259.51 45.9117L254.335 28.5513C253.716 26.1489 253.315 22.8667 254.752 20.6831C256.882 17.4445 263.787 17.1126 267.413 16.6341C270.715 16.1985 274.375 15.8189 277.531 14.7557C281.37 13.4618 284.977 11.4346 288.904 10.4078C292.18 9.55083 296.11 9.73786 299.173 8.60692C302.875 7.24042 304.932 3.75946 308.955 2.83874Z"/>
	<path d="M41.1203 220.74L106.309 220.696L133.007 221.088C136.029 221.148 139.07 220.65 142.088 220.9C143.384 221.007 144.654 221.291 145.762 222.005C148.926 224.045 149.88 231.186 150.846 234.588L153.464 242.686C154.425 245.438 155.464 248.162 156.239 250.974C157.508 255.585 158.559 260.731 160.55 265.085C164.288 273.259 169.745 280.566 174.033 288.427C175.666 291.421 176.294 294.816 177.431 297.997C178.949 302.248 181.155 306.602 182.164 310.994L182.796 313.916C183.602 318.742 182.805 323.99 183.197 328.893L184.582 343.789C185.046 347.226 185.965 350.734 185.908 354.22C185.881 355.908 185.688 357.379 184.645 358.754C182.887 361.071 180.084 362.015 177.604 363.358L164.108 370.446C162.169 371.451 159.977 373.046 157.879 373.602C153.54 374.753 148.528 374.985 144.058 375.447C136.479 376.233 128.792 375.363 121.257 376.283C115.196 377.023 109.301 379.059 103.257 380.066C99.8528 380.632 96.3495 380.701 92.9095 380.93L73.5984 382.036C68.2293 382.297 62.8971 383.222 57.5061 382.91C51.0524 382.536 43.6669 382.106 37.3961 380.633C33.1795 379.643 29.173 377.725 24.8528 377.224C20.7295 376.746 12.9928 378.552 9.55867 376.503C7.95679 375.548 6.75455 373.7 6.47661 371.858C6.14144 369.636 7.28004 366.261 7.60378 363.983L8.82957 352.867C9.5184 347.322 8.93826 341.693 9.47455 336.162C10.2396 328.271 12.5267 320.51 14.5954 312.887L18.2219 299.115C19.9932 293.232 21.7239 287.144 23.9009 281.406C25.5283 277.117 27.7984 272.644 28.8409 268.191C30.224 262.282 30.5212 255.509 31.2251 249.45L33.7565 231.344C34.1232 228.767 34.0142 224.944 35.6892 222.839C37.0395 221.141 39.1233 221.004 41.1203 220.74Z"/>
	<path d="M189.004 404.99C189.161 408.388 188.072 411.791 187.83 415.167C187.432 420.71 187.551 426.175 186.86 431.716C186.366 435.673 185.334 439.633 184.432 443.513L178.542 466.132L175.166 478.304C172.749 485.7 168.918 492.877 167.416 500.556C166.451 505.493 166.083 510.477 165.527 515.463L164.343 523.643L163.177 536.031C162.966 537.935 162.881 540.199 162.21 541.999C161.589 543.666 160.188 545.412 158.459 545.99C156.124 546.771 153.043 546.475 150.607 546.483L137.486 546.514L90.6512 546.495C79.2119 546.485 67.4226 547.099 56.0186 546.45C54.5953 546.368 52.9321 546.168 51.7076 545.397C50.6142 544.708 49.5131 543.561 48.967 542.379C47.7552 539.757 47.2004 536.519 46.2573 533.743L35.7678 502.109C34.689 499.051 33.0065 496.602 31.3955 493.82L24.3116 481.353C22.3651 477.862 21.0933 474.028 19.6417 470.314C17.4672 464.749 15.097 458.958 13.6522 453.154C12.8833 450.066 13.0755 446.784 13.0494 443.621L12.5602 431.113C12.4368 428.191 12.5375 424.859 11.8099 422.024C10.9736 418.765 9.90241 414.401 10.311 411.039C10.5366 409.182 11.0848 408.3 12.5506 407.211C16.5778 404.219 21.9162 402.163 26.3927 399.913C30.1436 398.028 33.7319 395.284 37.8196 394.191C41.7557 393.138 45.8172 393.013 49.8271 392.431C52.4161 392.055 55.0968 391.345 57.7017 391.209C63.0978 390.925 68.6596 391.298 74.0216 390.708C76.2359 390.465 78.5111 389.625 80.7155 389.179L94.5414 386.815C98.4519 386.199 102.545 386.431 106.503 386.115L130.977 384.439C133.445 384.332 135.977 383.9 138.436 383.987C145.589 384.24 153.126 385.071 160.048 386.883C163.831 387.874 168.166 389.891 171.998 390.31C176.43 390.796 180.892 389.139 185.345 389.762L186.015 391.504L185.518 391.691L186.801 392.091L186.923 392.473C187.166 393.083 187.525 393.401 187.983 393.851C188.548 396.516 187.629 399.311 188.557 401.673L188.799 403.32L189.004 404.99Z"/>
	<path d="M336.206 800.486C334.143 798.704 331.634 797.491 329.389 795.952C325.29 793.144 321.441 790.281 317.06 787.899C313.982 786.225 310.733 785.029 307.602 783.484C305.039 782.22 302.129 780.332 299.36 779.688C296.662 779.061 293.494 779.143 290.726 779.011C287.358 778.851 284.016 778.482 280.685 777.963C274.257 776.961 268.188 774.01 261.784 773.251C257.029 772.686 252.01 772.925 247.215 772.884C234.508 772.777 221.795 773.247 209.177 774.87L180.729 778.819L151.584 780.274C147.365 780.457 143.025 780.384 138.849 781.018C132.898 781.922 127.17 784.292 121.151 785.259C119.056 785.596 116.297 785.821 114.368 784.726C112.658 783.754 111.713 781.123 110.803 779.46C102.99 765.184 97.597 749.678 92.2934 734.315L87.3042 720.7C85.3835 715.251 83.822 710.177 81.1175 705.014C80.5805 703.988 80.136 703.081 79.3186 702.244C77.4838 700.365 73.993 698.31 73.3767 695.61C72.4139 691.392 81.4667 678.796 82.8006 673.445C84.2532 667.618 84.0418 661.881 84.5207 655.975L85.8274 639.46C86.0147 634.737 85.7197 629.89 86.145 625.195C86.3065 623.411 86.7459 621.685 86.9616 619.915C87.5433 615.141 87.2653 610.614 90.1022 606.421C92.2585 605.352 94.0787 605.232 96.4349 605.617C101.025 606.366 105.683 607.691 110.269 608.249C113.041 608.586 115.935 608.398 118.729 608.575C121.212 608.732 123.757 609.242 126.246 609.128L140.267 608.29L163.712 608.159C171.11 607.877 178.366 606.664 185.819 606.695C189.353 606.709 192.527 607.607 195.99 608.056L202.445 608.589L221.109 611.188C225.571 611.614 230.052 611.168 234.529 611.732L235.176 611.818C234.234 608.236 233.3 604.247 231.528 600.974C230.425 598.936 228.564 597.239 226.924 595.63C224.797 593.544 222.647 591.358 220.235 589.603C217.692 587.752 214.794 586.496 212.04 585.001L202.922 579.834C198.891 577.746 193.906 575.498 190.66 572.269C188.468 570.089 186.712 566.667 185.002 564.074C182.857 560.821 180.525 557.494 179.265 553.787C179.861 546.579 183.669 539.292 185.102 532.189C187.54 520.109 188.669 508.08 190.438 495.932C191.486 488.734 193.413 481.688 194.716 474.546C195.848 468.341 196.348 461.119 198.71 455.273C199.464 453.408 200.938 451.886 202.191 450.341L208.441 442.742C210.119 440.771 211.839 438.908 213.865 437.286C218.205 433.811 223.316 431.271 227.821 427.97C231.723 425.11 235.187 421.374 239.16 418.752C240.335 417.976 241.693 417.166 243.13 417.071C246.8 416.827 250.158 420.736 253.553 421.836C256.578 422.816 259.875 423.087 262.961 423.951C268.639 425.542 274.216 427.905 279.93 429.232C288.918 431.32 297.829 432.158 306.882 433.626C311.123 434.314 316.033 435.908 320.259 436.036C323.068 436.122 325.925 435.103 328.741 434.908C330.291 434.801 331.936 434.783 333.456 435.133C335.967 435.71 338.465 436.894 340.929 437.69L359.833 443.544C368.836 446.305 378.658 448.034 387.285 451.84C389.973 453.026 392.444 454.765 394.947 456.291L405.028 462.27C407.678 463.86 410.911 465.182 413.178 467.303C414.508 468.546 415.656 470.072 415.718 471.963C415.771 473.593 414.738 475.162 414.102 476.613C412.602 480.034 410.518 483.835 409.782 487.474C409.082 490.935 409.54 494.941 410.114 498.403C411.981 509.672 412.622 522.102 416.871 532.795L420.612 541.301C422.292 544.682 426.26 549.848 426.142 553.735C426.085 555.631 424.893 557.374 423.467 558.548C421.443 560.213 418.279 561.028 415.844 562.021L405.752 566.404L391.225 572.529L381.782 575.99C375.152 578.679 368.15 581.833 361.289 583.801C354.567 585.728 347.661 586.592 340.869 588.218C335.753 589.443 330.821 591.538 325.672 592.541L309.029 595.079C304.377 595.998 299.829 597.552 295.159 598.383C290.494 599.213 285.705 599.389 281.025 600.143C275.62 601.014 270.779 602.641 265.606 604.333C259.639 606.283 254.732 607.483 249.923 611.843C254.097 611.321 258.404 611.468 262.607 611.456L282.164 611.356L304.697 610.317L325.544 610.218L337.982 609.831C339.994 609.816 342.958 609.931 344.383 611.581C345.19 612.514 345.531 613.911 345.679 615.111C346.244 619.69 345.647 624.683 345.582 629.301C345.422 640.684 345.261 651.893 344.066 663.233C345.902 667.011 347.346 670.954 348.607 674.955C349.579 678.037 350.437 681.561 352.09 684.351C353.738 687.132 356.474 689.696 358.57 692.2C361.49 695.689 363.614 698.384 367.904 700.265C374.218 703.034 381.661 705.366 387.173 709.506L387.664 709.88C393.572 702.525 403.634 702.528 411.555 698.475C415.954 696.224 419.549 692.938 423.473 690.018C425.416 688.572 427.588 687.1 429.2 685.28C430.943 683.311 432.159 680.89 433.613 678.711L439.529 669.438C440.387 668.022 441.39 666.686 441.964 665.119C443.391 661.227 443.931 656.81 444.649 652.727L447.824 633.017C448.479 627.53 448.37 620.314 450.681 615.255C451.01 614.533 451.461 614.08 452.029 613.544C453.938 612.783 456.23 612.834 458.264 612.962C461.056 613.138 463.649 613.957 466.399 614.31L486.65 616.501C490.427 616.874 494.193 617.555 497.981 617.791L505.037 618.028C512.656 618.657 520.256 619.713 527.922 619.931L597.222 619.089L631.099 621.049C626.045 617.668 620.869 615.039 615.054 613.206C606.421 610.485 597.823 609.84 589.062 607.946L540.061 596.836L517.543 591.489C513.892 590.511 510.524 588.876 506.97 587.637L482.135 578.626L472.583 574.426L460.31 569.404C457.714 568.243 455.163 567.185 453.203 565.044C451.652 560.486 454.624 557.625 456.618 553.865C458.55 550.219 460.881 546.387 462.449 542.597C464.359 537.984 464.546 532.669 465.441 527.807L469.339 505.365C469.706 502.467 470.35 499.581 469.883 496.662C469.192 492.342 466.31 489.832 464.723 485.984C463.577 483.207 462.89 479.507 464.159 476.705C464.497 475.957 464.86 475.333 465.526 474.831C468.863 472.316 473.245 470.656 476.87 468.546L485.87 463.476C488.139 462.156 490.458 460.514 492.897 459.552C495.73 458.434 498.896 457.918 501.827 457.059L513.34 453.302L522.805 450.75L538.954 444.737C541.377 443.842 543.936 442.587 546.485 442.137C550.96 441.346 555.077 444.038 559.428 444.042C561.331 444.044 563.266 443.349 565.14 443.043L578.715 440.84L594.847 438.342C597.331 437.977 599.809 438.194 602.2 437.31C612.056 433.667 622.188 430.237 632.661 428.901C634.608 428.653 639.33 427.75 641.035 428.403C643.166 429.22 645.631 431.555 647.456 432.94L659.128 441.713C661.502 443.374 664.07 445.012 666.174 447.015C669.642 450.317 672.453 454.177 675.555 457.798C676.844 459.304 678.735 460.827 679.673 462.567C680.958 464.95 681.317 467.844 681.782 470.478L686.977 495.08L689.431 512.75L694.567 541.321C695.29 545.187 696.328 549.013 697.394 552.797C698.133 555.416 699.099 558.183 699.193 560.913C699.286 563.601 697.611 566.134 696.162 568.281C694.138 572.04 692.061 576.728 689.189 579.887C686.111 583.273 681.293 585.403 677.311 587.568L670.162 591.869C665.686 594.423 660.918 596.596 656.882 599.871C655.608 600.905 654.532 602.2 653.314 603.308C651.965 604.536 650.278 605.813 649.225 607.282C646.065 611.689 644.733 617.842 642.566 622.763C646.797 623.326 650.976 624.159 655.252 624.262C660.596 624.391 666.962 623.588 672.17 624.47C673.411 624.68 675.046 625.317 675.796 626.386C677.262 628.478 677.389 630.917 677.744 633.342C678.313 637.243 678.128 641.231 678.483 645.158L680.113 657.549C681.299 666.812 682.504 675.845 684.494 684.983C684.896 686.829 685.015 688.842 685.65 690.622C687.452 695.662 692.468 700.763 695.746 704.986C697.142 706.784 699.171 708.67 699.644 710.962C700.04 712.884 699.387 714.254 698.278 715.781C697.163 717.316 695.814 718.624 694.796 720.243C689.602 728.504 686.572 737.764 682.801 746.711C681.94 748.754 680.668 750.221 679.604 752.111C678.93 753.309 678.571 754.602 677.85 755.783C677.119 756.978 677.042 758.585 676.699 759.933C676.249 761.701 675.64 763.523 675.012 765.239C673.674 768.899 671.68 772.348 670.029 775.875C666.854 782.655 664.162 789.236 659.837 795.445C658.717 797.052 657.412 799.161 655.972 800.483L655.161 800.884C653.45 801.42 649.794 801.246 648.131 800.552C647.308 800.849 646.711 801.004 645.824 801.013L490.65 801.042L451.825 801.021L441.193 801.01C438.732 801.007 436.234 801.18 433.818 800.648L433.517 800.798C431.503 801.538 425.264 801.288 423.266 800.462L422.769 800.731C421.592 801.315 419.322 801.022 417.967 801.026L404.374 801.055L363.725 801.056L350.363 801.03C347.91 801.024 345.209 801.317 342.891 800.475C342.473 800.729 342.431 800.788 341.88 800.925C340.358 801.303 337.601 801.194 336.206 800.486ZM342.891 800.475C345.209 801.317 347.91 801.024 350.363 801.03L363.725 801.056L404.374 801.055L417.967 801.026C419.322 801.022 421.592 801.315 422.769 800.731L423.266 800.462C421.157 798.157 418.649 795.59 417.093 792.876C414.293 787.99 413.086 782.339 410.909 777.189L404.648 762.317C403.109 758.912 401.308 755.651 400.014 752.135L387.592 713.909C386.356 716.715 385.725 719.84 384.768 722.76L379.759 736.362C377.497 742.029 375.087 748.168 372.302 753.567L360.893 774.401L356.474 782.909C354.795 786.437 353.341 790.125 350.988 793.276C348.994 795.946 345.947 798.378 343.211 800.261L342.891 800.475ZM433.818 800.648C436.234 801.18 438.732 801.007 441.193 801.01L451.825 801.021L490.65 801.042L645.824 801.013C646.711 801.004 647.308 800.849 648.131 800.552C643.386 798.081 637.411 796.772 632.319 794.971C627.29 793.193 622.051 793.304 616.79 792.81L589.423 790.182C581.067 789.129 572.949 785.604 564.506 784.434C558.382 783.584 551.904 784.156 545.712 783.897C532.601 783.349 519.349 781.708 506.21 782.202C502.387 782.345 498.643 783.267 494.866 783.699L485.073 784.535C480.171 785.061 474.777 785.077 470.009 786.263C466.457 787.146 463.13 788.87 459.711 790.151C456.929 791.194 453.998 791.86 451.235 792.925L433.818 800.648ZM659.128 441.713L659.621 443.52L660.24 443.771C661.107 444.16 660.937 444.236 661.53 444.813L664.645 447.042L664.864 447.446C665.472 448.454 666.413 449.115 667.192 449.976C668.838 451.794 670.252 453.749 671.993 455.526C672.536 456.081 672.057 455.584 672.471 456.427C672.767 457.029 673.232 457.324 673.643 457.794L674.038 458.383C675.139 459.739 676.387 460.838 677.463 462.271C677.803 462.723 677.958 463.139 678.148 463.665L678.721 464.135C679.04 464.455 679.04 465.008 679.122 465.423L679.226 465.905L679.427 467.502L679.961 467.337C680.272 468.699 680.111 470.288 680.102 471.683L680.884 471.878L680.75 472.688L681.467 473.443L681.271 474.812L680.884 475.007L681.275 475.594L681.275 477.94L682.058 478.136L682.103 478.651C682.189 479.422 682.133 479.127 682.445 479.896L682.058 480.287C682.459 481.326 683.296 482.478 683.034 483.514C682.982 483.719 683.089 484.042 683.124 484.22C683.185 484.522 683.275 486.142 683.36 486.284C684.245 487.752 684.753 486.037 684.401 488.5L684.014 488.892C684.081 490.248 684.25 490.668 685.187 491.629C685.185 492.421 685.377 492.606 684.798 493.194L684.986 493.616C685.215 494.191 685.258 494.637 685.298 495.246L685.97 495.345C686.599 496.586 686.778 497.389 686.316 498.773L686.163 499.158C685.806 500.263 686.016 501.616 686.07 502.776L686.679 503.542L687.335 502.776L687.293 503.289C687.18 504.743 687.008 506.347 687.272 507.777L687.926 508.252C687.926 510.238 688.762 511.231 688.119 513.238C687.854 514.066 687.852 513.712 688.113 514.365C688.395 515.069 688.3 514.801 688.446 515.645C689.022 516.195 689.065 516.043 689.144 516.882C689.227 517.754 689.157 517.415 689.49 518.225L689.288 518.598C688.966 519.402 689.124 520.218 689.21 521.054C689.763 520.732 689.553 520.911 689.882 520.572L689.915 521.194C689.982 521.937 690.116 522.284 690.465 522.918C690.339 523.67 690.434 523.926 689.882 524.483L690.017 526.634L690.718 526.752L691.055 526.83C691.055 527.585 690.884 527.636 691.446 528.198C691.443 528.95 691.611 529.006 691.055 529.567L691.06 531.523L692.325 532.696L692.277 533.124L692.225 534.652L691.838 535.043L691.973 538.367L692.636 538.47L693.011 538.172C693.117 539.009 693.036 539.022 693.594 539.736C693.55 540.524 693.439 541.05 693.205 541.79C692.896 542.764 693.13 543.567 693.281 544.553L693.888 544.439L694.185 544.43C694.18 545.395 694.364 545.027 693.794 545.603C693.834 546.623 693.871 547.269 694.3 548.218L695.55 548.927C695.411 549.623 695.485 549.774 694.967 550.296L695.294 552.239L696.141 552.448C696.138 553.189 696.3 553.256 695.76 553.816C696.242 554.915 696.581 555.275 697.506 555.968C697.367 556.663 697.441 556.814 696.923 557.336C697.089 559.315 697.281 561.343 697.114 563.326C697.069 563.856 697.219 564.186 697.408 564.67C696.987 565.376 696.84 565.668 696.141 566.136L696.22 566.504C696.319 567.125 696.238 567.664 696.162 568.281C697.611 566.134 699.286 563.601 699.193 560.913C699.099 558.183 698.133 555.416 697.394 552.797C696.328 549.013 695.29 545.187 694.567 541.321L689.431 512.75L686.977 495.08L681.782 470.478C681.317 467.844 680.958 464.95 679.673 462.567C678.735 460.827 676.844 459.304 675.555 457.798C672.453 454.177 669.642 450.317 666.174 447.015C664.07 445.012 661.502 443.374 659.128 441.713Z"/>
	<path d="M659.128 441.713C661.502 443.374 664.07 445.012 666.174 447.015C669.642 450.317 672.453 454.177 675.555 457.798C676.844 459.304 678.735 460.827 679.673 462.567C680.958 464.95 681.317 467.844 681.782 470.478L686.977 495.08L689.431 512.75L694.567 541.321C695.29 545.187 696.328 549.013 697.394 552.797C698.133 555.416 699.099 558.183 699.193 560.913C699.286 563.601 697.611 566.134 696.162 568.281C696.238 567.664 696.319 567.125 696.22 566.504L696.141 566.136C696.84 565.668 696.987 565.376 697.408 564.67C697.219 564.186 697.069 563.856 697.114 563.326C697.281 561.343 697.089 559.315 696.923 557.336C697.441 556.814 697.367 556.663 697.506 555.968C696.581 555.275 696.242 554.915 695.76 553.816C696.3 553.256 696.138 553.189 696.141 552.448L695.294 552.239L694.967 550.296C695.485 549.774 695.411 549.623 695.55 548.927L694.3 548.218C693.871 547.269 693.834 546.623 693.794 545.603C694.364 545.027 694.18 545.395 694.185 544.43L693.888 544.439L693.281 544.553C693.13 543.567 692.896 542.764 693.205 541.79C693.439 541.05 693.55 540.524 693.594 539.736C693.036 539.022 693.117 539.009 693.011 538.172L692.636 538.47L691.973 538.367L691.838 535.043L692.225 534.652L692.277 533.124L692.325 532.696L691.06 531.523L691.055 529.567C691.611 529.006 691.443 528.95 691.446 528.198C690.884 527.636 691.055 527.585 691.055 526.83L690.718 526.752L690.017 526.634L689.882 524.483C690.434 523.926 690.339 523.67 690.465 522.918C690.116 522.284 689.982 521.937 689.915 521.194L689.882 520.572C689.553 520.911 689.763 520.732 689.21 521.054C689.124 520.218 688.966 519.402 689.288 518.598L689.49 518.225C689.157 517.415 689.227 517.754 689.144 516.882C689.065 516.043 689.022 516.195 688.446 515.645C688.3 514.801 688.395 515.069 688.113 514.365C687.852 513.712 687.854 514.066 688.119 513.238C688.762 511.231 687.926 510.238 687.926 508.252L687.272 507.777C687.008 506.347 687.18 504.743 687.293 503.289L687.335 502.776L686.679 503.542L686.07 502.776C686.016 501.616 685.806 500.263 686.163 499.158L686.316 498.773C686.778 497.389 686.599 496.586 685.97 495.345L685.298 495.246C685.258 494.637 685.215 494.191 684.986 493.616L684.798 493.194C685.377 492.606 685.185 492.421 685.187 491.629C684.25 490.668 684.081 490.248 684.014 488.892L684.401 488.5C684.753 486.037 684.245 487.752 683.36 486.284C683.275 486.142 683.185 484.522 683.124 484.22C683.089 484.042 682.982 483.719 683.034 483.514C683.296 482.478 682.459 481.326 682.058 480.287L682.445 479.896C682.133 479.127 682.189 479.422 682.103 478.651L682.058 478.136L681.275 477.94L681.275 475.594L680.884 475.007L681.271 474.812L681.467 473.443L680.75 472.688L680.884 471.878L680.102 471.683C680.111 470.288 680.272 468.699 679.961 467.337L679.427 467.502L679.226 465.905L679.122 465.423C679.04 465.008 679.04 464.455 678.721 464.135L678.148 463.665C677.958 463.139 677.803 462.723 677.463 462.271C676.387 460.838 675.139 459.739 674.038 458.383L673.643 457.794C673.232 457.324 672.767 457.029 672.471 456.427C672.057 455.584 672.536 456.081 671.993 455.526C670.252 453.749 668.838 451.794 667.192 449.976C666.413 449.115 665.472 448.454 664.864 447.446L664.645 447.042L661.53 444.813C660.937 444.236 661.107 444.16 660.24 443.771L659.621 443.52L659.128 441.713Z"/>
	<path d="M387.702 0L453.715 0L620.558 0L622.981 0L668.484 0L669.083 0.371854C671.399 1.67714 675.439 1.58105 678.029 1.86096C681.163 2.19969 684.827 2.89102 687.784 4.01134L697.506 8.19497L721.086 17.6884L733.034 22.6098C734.659 23.2011 736.49 24.034 738.191 24.3211C740.567 24.7223 743.234 24.0614 745.623 23.9257C749.661 23.6966 754.884 24.2251 758.733 22.9044C763.387 21.3074 772.254 13.8968 777.113 16.1225C780.223 17.547 782.061 23.5827 782.981 26.6551C784.949 33.2288 785.373 44.595 782.075 50.7107C780.69 53.2801 778.773 56.49 776.798 58.6298C773.929 61.7398 764.733 65.5775 766.382 70.9165C767.945 75.9761 773.225 80.9768 776.041 85.4583C777.165 87.2474 777.616 89.4842 778.113 91.5205C778.738 94.0764 779.472 96.6892 779.672 99.3218C780.107 105.044 779.077 110.628 778.005 116.212C777.423 119.24 777.001 122.345 775.74 125.177C775.115 126.582 774.494 127.849 774.066 129.338C776.057 130.379 777.073 130.736 777.773 132.979C778.267 134.563 778.505 136.214 779.052 137.782C780.336 141.462 782.638 144.647 780.698 148.668C779.849 150.428 776.761 151.167 774.994 151.652L706.414 171.93L693.292 176.091C688.654 177.372 683.702 178.716 678.986 179.591C674.539 180.416 670.871 180.066 666.588 181.995C665.844 182.33 665.253 182.426 664.45 182.505C670.302 183.48 677.131 182.754 683.134 182.951C690.793 183.202 698.668 184.23 706.308 184.04C710.094 183.945 713.883 183.325 717.653 182.986L736.626 181.154C739.463 180.842 742.303 180.201 745.151 180.029C749.513 179.765 754.522 181.058 758.933 181.337C765.83 181.774 772.921 181.188 779.756 182.311C781.045 182.523 783.019 183.295 783.867 184.347C786.989 188.22 780.932 215.721 781.14 222.543C781.263 226.601 782.739 230.758 783.303 234.805L786.305 257.939L788.92 274.891C789.348 278.173 789.393 281.543 789.687 284.845C790.153 290.063 790.726 294.942 790.567 300.214L789.442 315.667C789.217 320.942 789.595 326.434 789.02 331.664C788.308 338.14 786.55 344.601 785.728 351.1L783.141 372.927C782.852 375.792 783.066 379.147 782.179 381.878L782.105 382.017C781.866 384.974 781.441 387.959 781.337 390.918C781.025 399.806 781.905 408.95 782.125 417.84C782.611 419.882 782.553 424.058 781.976 426.118C781.543 427.667 780.75 429.296 779.253 430.043C776.25 431.544 771.886 430.731 768.626 430.626C752.669 430.111 737.059 427.828 721.367 424.962C714.074 423.629 705.955 420.941 698.531 421.13C693.593 421.256 688.66 422.197 683.722 422.499L669.183 423.205L634.719 426.741L628.157 427.151C622.629 427.764 604.48 432.482 600.336 430.738C596.028 428.924 593.804 421.226 592.019 417.282C591.602 416.361 591.168 415.637 590.37 414.996C588.376 413.394 583.976 412.409 581.556 411.489L574.125 408.281C570.445 406.816 566.493 407.029 562.601 407.062C551.671 407.154 541.733 409.114 531.051 411.013C526.464 411.828 521.713 413.032 517.041 413.103L498.377 412.472C494.697 412.237 490.899 412.134 487.258 411.563C481.467 410.653 475.801 408.825 470.024 407.768C463.29 406.535 456.301 405.65 449.74 403.636C444.378 401.991 442.11 398.231 438.884 394.047L432.843 386.192C432.054 385.124 430.382 382.539 429.177 382.073C426.713 381.118 424.311 380.877 421.708 380.565C418.449 380.175 415.16 379.868 411.896 380.392C405.63 381.398 398.631 384.822 392.836 387.34C391.382 390.318 390.13 395.704 390.549 398.981C390.747 400.524 391.618 402.102 392.148 403.576L394.504 411.217C395.446 414.641 395.559 417.133 393.741 420.315C392.216 421.014 390.691 421.04 389.046 420.863C381.541 420.057 374.018 416.901 366.811 414.743C362.443 413.436 357.993 412.533 353.715 410.935L339.56 405.479C337.164 404.532 334.853 403.36 332.322 402.812C326.109 401.468 318.949 402.009 312.59 401.97L291.156 401.656C284.085 401.843 277.502 402.872 270.513 403.613C262.253 404.489 254.114 405.08 245.915 406.636C237.243 408.281 229.283 411.779 220.395 412.909C217.998 413.214 215.439 413.503 213.476 411.863C212.456 411.01 211.655 409.745 211.331 408.452C210.635 405.674 210.82 402.219 210.537 399.327L209.328 389.158C208.508 378.282 209.045 367.201 209.147 356.304C209.207 349.89 208.976 343.413 209.421 337.013L210.995 319.735C211.335 317.18 212.109 314.711 212.446 312.151C212.85 309.076 212.816 305.95 212.817 302.855C212.819 295.029 211.878 287.635 211.231 279.88C210.932 276.294 211.064 272.694 210.706 269.107C210.29 264.941 209.497 260.774 209.284 256.597C208.521 241.61 209.358 226.508 210.289 211.569L210.903 198.853C211.023 197.287 210.958 195.29 212.13 194.097L212.452 193.797C212.843 193.417 213.181 193.072 213.661 192.797C215.049 192.001 216.904 192.119 218.455 192.16C224.111 192.309 231.799 193.079 236.955 195.321C240.181 196.724 243.13 199.461 246.479 200.424L247.042 200.571C250.252 201.435 253.601 201.496 256.898 201.789L271.136 203.114C273.904 203.372 276.566 204.077 279.316 204.443C282.587 204.879 285.809 204.941 289.104 204.871C296.993 204.705 304.719 203.421 312.567 203.02C319.817 202.649 327.526 202.992 334.675 201.515C339.28 200.563 343.848 198.076 348.334 196.579L388.511 182.76C386.809 182.271 383.233 181.77 382.263 180.21C379.629 175.976 382.046 167.321 382.263 162.458C382.422 158.905 382.329 155.253 382.124 151.703C381.779 145.75 380.833 139.976 380.134 134.087L377.744 110.685L376.342 99.868C375.804 94.0233 376.161 88.0031 375.938 82.1296L375.192 71.96L375.058 45.363L376.706 26.2769C377.189 19.6823 376.436 11.5891 378.291 5.27775C379.548 0.99696 383.975 1.99459 387.12 0.323202L387.702 0ZM576.973 119.606C576.46 122.342 576.704 125.548 576.033 128.115C575.619 129.701 574.318 131.434 573.444 132.824L573.995 133.103C577.024 134.654 578.736 136.322 579.762 139.647C580.332 141.495 581.069 143.658 581.2 145.593C581.385 148.32 579.971 153.785 578.769 156.24C578.057 157.695 577.037 158.799 575.48 159.324C571.233 160.757 565.831 160.761 561.369 161.379C556.126 162.106 550.894 163.3 545.742 164.508L495.065 178.156C490.869 179.286 486.779 180.899 482.543 181.858C479.131 182.631 475.637 182.905 472.176 183.336L458.462 185.165C454.363 185.653 450.387 186.725 446.24 186.887C442.065 187.05 437.949 185.93 433.884 185.108C428.169 183.952 422.223 182.733 416.43 182.166C408.171 181.358 399.848 182.733 391.562 182.347C390.82 182.312 391.122 182.307 390.311 182.454C391.065 183.148 391.536 183.024 392.328 183.532C393.287 184.147 394.672 187.545 394.821 188.686C394.968 189.814 394.3 191.672 394.025 192.776L391.425 201.719C390.957 203.169 390.131 204.976 390.076 206.484C389.98 209.147 390.776 212.362 391.536 214.917L392.628 218.678L406.461 224.104C408.456 224.945 410.663 226.097 412.798 226.47C417.737 227.332 423.582 225.437 428.579 224.893C430.699 223.027 432.318 220.612 434.024 218.373L441.496 208.681C442.86 206.923 444.25 204.845 445.971 203.422C447.755 201.948 450.233 201.845 452.421 201.391L460.377 199.597C470.428 197.323 480.702 194.381 490.946 193.167C499.166 192.193 508.062 191.912 516.329 192.379C519.321 192.548 522.185 193.537 525.128 194.035L542.7 196.564C545.743 197.04 548.749 197.898 551.785 198.303L562.512 199.228C565.267 199.521 569.281 200.452 571.939 199.885C575.143 199.201 578.409 196.988 581.54 195.851C584.822 194.658 589.482 193.467 592.257 191.31C594.645 189.454 596.842 184.673 598.023 181.847C594.461 182.369 588.299 184.25 585.222 181.902C583.926 180.912 583.165 179.628 582.969 178.008C581.948 169.531 582.752 161.09 582.821 152.611C582.893 143.692 581.891 134.689 580.016 125.979C579.732 124.659 579.411 121.291 578.386 120.475L576.973 119.606ZM453.715 0C455.894 1.38364 458.917 1.53213 461.44 1.92313L473.35 3.77869C476.393 4.1827 479.698 4.34724 482.618 5.3034C489.26 7.47784 495.804 10.9072 502.144 13.8101L525.043 23.8628C528.91 25.5464 532.796 28.0395 536.885 29.0587C539.523 29.7162 542.795 29.4012 545.526 29.4356C549.421 29.4846 554.042 30.0617 557.848 29.2298C561.489 28.4341 564.954 26.8648 568.414 25.5177C570.142 24.8451 572.36 23.8575 574.245 23.8673C575.551 23.8741 577.006 24.4205 578.25 24.7962L579.293 9.92993L579.522 8.55922C579.835 7.18172 580.202 5.85473 581.31 4.88892C582.294 4.03161 584.854 3.6804 586.167 3.4594C592.945 2.31888 599.796 2.22187 606.645 1.84275C610.868 1.60902 616.924 2.26892 620.558 0L453.715 0ZM504.145 280.037C502.339 280.92 500.875 281.456 500.271 283.5C499.556 285.921 500.209 290.111 500.21 292.691L499.77 305.459L499.957 313.111C499.888 316.119 498.753 319.513 499.364 322.424C500.635 323.877 502.916 324.952 504.841 325.084C507.875 325.292 511.146 324.297 513.691 322.692C515.204 321.176 515.987 319.123 516.899 317.209C518.789 313.244 520.313 310.73 520.324 306.24C520.33 304.273 520.301 302.519 519.666 300.646L517.322 293.045C516.096 288.338 515.891 284.734 511.05 282.239C509.003 281.183 506.418 280.442 504.145 280.037ZM574.647 60.9474C570.909 64.0308 567.664 67.1748 565.74 71.7029C566.307 73.5021 566.739 76.0441 568.215 77.2703L570.179 78.9162L575.541 82.1958C575.208 77.9323 574.89 73.6838 574.918 69.4041C574.932 67.1652 575.568 64.0948 575.236 61.9915C575.162 61.5236 574.978 61.2491 574.647 60.9474ZM620.558 0C616.924 2.26892 610.868 1.60902 606.645 1.84275C599.796 2.22187 592.945 2.31888 586.167 3.4594C584.854 3.6804 582.294 4.03161 581.31 4.88892C580.202 5.85473 579.835 7.18172 579.522 8.55922L579.293 9.92993C580.537 8.96002 581.314 7.72032 582.435 6.66906C582.97 6.16772 583.562 5.95 584.043 5.34883L584.293 4.99542C585.157 4.69308 585.886 4.98451 586.774 5.14539L586.993 4.69336C587.443 4.15567 587.579 4.19102 588.22 4.05666C590.11 3.66068 592.455 4.05632 594.398 4.06811C597.953 4.08969 601.444 3.97112 604.988 3.63343L605.275 3.19874C604.635 3.16816 604.039 3.28658 603.506 2.91326L611.247 2.92944L611.62 3.31732C613.467 3.33577 615.595 3.5557 617.404 3.20488L618.066 3.07066C619.093 2.92485 619.882 2.91266 620.856 2.4608C622.291 1.79422 622.499 1.48388 622.981 0L620.558 0ZM782.105 382.017C781.558 382.959 781.108 383.625 781.125 384.758L780.64 385.051L780.741 385.489C780.917 386.566 780.794 387.682 780.735 388.767L780.248 389.353L780.343 389.791C780.737 392.208 780.194 394.746 780.633 397.161C780.755 397.832 780.702 398.187 780.538 398.838L780.166 397.91L779.868 398.153L780.064 412.233C780.136 413.372 780.1 414.461 780.4 415.573L781.125 414.678L781.098 415.2C781.119 416.081 781.437 416.449 781.824 417.197L782.125 417.84C781.905 408.95 781.025 399.806 781.337 390.918C781.441 387.959 781.866 384.974 782.105 382.017Z"/>
	<path d="M782.105 382.017C781.866 384.974 781.441 387.959 781.337 390.918C781.025 399.806 781.905 408.95 782.125 417.84L781.824 417.197C781.437 416.449 781.119 416.081 781.098 415.2L781.125 414.678L780.4 415.573C780.1 414.461 780.136 413.372 780.064 412.233L779.868 398.153L780.166 397.91L780.538 398.838C780.702 398.187 780.755 397.832 780.633 397.161C780.194 394.746 780.737 392.208 780.343 389.791L780.248 389.353L780.735 388.767C780.794 387.682 780.917 386.566 780.741 385.489L780.64 385.051L781.125 384.758C781.108 383.625 781.558 382.959 782.105 382.017Z"/>
	<path d="M620.558 0L622.981 0C622.499 1.48388 622.291 1.79422 620.856 2.4608C619.882 2.91266 619.093 2.92485 618.066 3.07066L617.404 3.20488C615.595 3.5557 613.467 3.33577 611.62 3.31732L611.247 2.92944L603.506 2.91326C604.039 3.28658 604.635 3.16816 605.275 3.19874L604.988 3.63343C601.444 3.97112 597.953 4.08969 594.398 4.06811C592.455 4.05632 590.11 3.66068 588.22 4.05666C587.579 4.19102 587.443 4.15567 586.993 4.69336L586.774 5.14539C585.886 4.98451 585.157 4.69308 584.293 4.99542L584.043 5.34883C583.562 5.95 582.97 6.16772 582.435 6.66906C581.314 7.72032 580.537 8.96002 579.293 9.92993L579.522 8.55922C579.835 7.18172 580.202 5.85473 581.31 4.88892C582.294 4.03161 584.854 3.6804 586.167 3.4594C592.945 2.31888 599.796 2.22187 606.645 1.84275C610.868 1.60902 616.924 2.26892 620.558 0Z"/>
</svg>
