<?xml version="1.0" encoding="utf-8" ?>
<svg xmlns="http://www.w3.org/2000/svg" xmlns:xlink="http://www.w3.org/1999/xlink" width="801" height="801">
	<path d="M409.264 580.725L422.054 585.718L422.09 601.117C422.091 604.547 422.269 608.111 421.737 611.504C420.752 617.793 417.767 623.091 412.53 626.789C405.234 631.94 396.487 632.788 387.886 631.287C379.629 629.845 371.916 626.826 366.965 619.71C361.759 612.226 362.127 603.546 362.13 594.839C362.131 592.122 361.872 589.056 362.366 586.397L364.029 586.251L395.787 586.343C396.983 587.41 397.817 589.315 398.609 590.7L403.836 599.975L375.048 600.088C375.014 604.458 376.116 609.389 379.248 612.614C383.495 616.989 389.095 618.418 395.001 618.447C399.054 618.467 402.382 617.61 405.301 614.63C410.261 609.565 409.254 602.231 409.258 595.72L409.264 580.725Z"/>
	<path d="M362.201 636.457L422.053 636.484L422.046 650.292L396.995 650.143C397.398 651.113 418.904 663.323 422.059 665.348L422.018 681.345L411.056 674.866L393.461 664.535L362.787 682.43L362.194 682.821L362.195 664.704L387.049 650.216L362.239 650.23L362.201 636.457Z"/>
	<path d="M646.26 801L645.768 800.786C640.684 798.614 635.219 797.489 629.836 796.333C617.812 793.752 605.624 792.236 593.45 790.573C561.819 786.254 529.501 780.625 497.461 783.149C481.8 784.383 466.56 788.35 452.002 794.186C443.881 797.442 433.92 802.969 425.151 799.209C423.367 798.444 421.653 797.201 420.412 795.705C418.767 793.725 417.592 790.867 416.392 788.577C411.475 779.196 407.114 769.39 403.503 759.427C399.907 749.507 396.753 739.322 392.645 729.605C391.433 726.737 389.939 722.623 387.798 720.342C383.282 727.709 380.258 736.025 377.083 744.031C371.303 758.607 365.411 774.017 356.588 787.045C353.053 792.266 348.051 798.471 341.637 800.026C340.367 800.334 339.253 800.291 338.042 799.793C334.32 798.262 330.8 795.852 327.229 793.977C319.679 790.011 311.843 786.268 303.798 783.411C297.869 781.305 291.984 779.459 285.806 778.212C276.448 776.323 266.953 775.634 257.476 774.676C250.995 774.02 244.709 773.045 238.17 773.139C215.136 773.473 192.468 777.908 169.651 780.56C162.613 781.378 155.59 780.566 148.549 781.417C139.775 782.476 130.971 785.448 122.158 785.818C118.928 785.953 115.905 785.765 113.064 784.009C111.403 782.982 110.43 781.465 109.72 779.68C107.46 774.002 106.005 767.865 104.142 762.032C99.3133 746.914 94.4288 731.824 87.6056 717.459C83.5319 708.883 79.2573 701.133 73.0704 693.852C78.5473 685.368 82.9273 676.428 84.698 666.408C86.545 655.956 86.2434 645.375 86.2372 634.81C86.233 627.578 85.4099 619.319 87.6293 612.397C88.6581 609.188 90.8275 606.425 94.2339 605.642C100.423 604.22 107.529 606.333 113.681 607.344C118.888 608.2 124.191 608.92 129.468 609.143C135.925 609.416 142.506 608.127 148.925 607.533C157.187 606.769 165.54 606.542 173.833 606.721C196.144 607.202 218.274 611.192 240.596 611.366L278.651 610.384L307.778 608.55C314.815 608.353 321.707 608.964 328.716 609.045C333.019 609.096 336.938 607.845 341.279 608.768C342.375 609.001 343.363 609.419 344.283 610.061C346.384 611.526 347.562 613.881 347.967 616.362C349.119 623.428 347.776 630.927 347.166 637.98C346.401 646.815 345.956 656.103 347.492 664.882C349.837 678.283 356.935 689.214 367.693 697.435C373.801 702.103 380.549 705.387 387.626 708.289C409.441 698.574 432.645 689.54 441.788 665.464C445.134 656.654 446.875 646.946 447.673 637.572C448.173 631.689 447.989 625.202 449.882 619.569C450.88 616.602 452.438 614.077 455.327 612.69C456.147 612.296 457.017 612.086 457.905 611.911C463.332 610.841 469.167 612.137 474.559 613.052L491.991 615.903L514.118 618.243C533.028 619.358 552.201 618.075 571.168 618.342L634.914 621.273L656.234 622.131C662.243 622.401 668.899 622.3 674.571 624.495C676.777 625.348 678.61 626.848 679.59 629.038C680.452 630.962 680.617 633.383 680.769 635.473C681.208 641.485 680.166 647.596 680.69 653.552C681.445 662.133 683.217 670.641 685.539 678.927C687.465 685.797 690.12 693.094 693.817 699.199C695.825 702.515 699.803 705.726 700.915 709.362C701.669 711.827 701.028 714.183 700.051 716.469L687.531 741.572C697.351 736.041 711.574 735.769 722.31 738.714C729.721 740.747 737.147 744.739 741.094 751.601C746.227 760.524 745.722 771.405 742.949 781.028C740.999 787.796 736.8 793.278 730.604 796.659L727.62 798.13C724.139 799.736 720.038 799.976 716.36 801L709.149 801L654.263 801L646.26 801ZM654.263 801L709.149 801C699.27 799.063 687.342 797.443 683.327 786.572C681.863 782.609 681.441 778.382 680.117 774.38C679.734 773.222 679.301 771.617 678.203 770.921C677.411 770.418 675.402 770.167 674.518 770.481C671.007 771.727 669.14 780.468 668.046 783.595C666.294 788.605 664.066 794.666 659.726 798.041C658.13 799.283 656.079 800.125 654.263 801Z"/>
</svg>
