<?xml version="1.0" encoding="utf-8" ?>
<svg xmlns="http://www.w3.org/2000/svg" xmlns:xlink="http://www.w3.org/1999/xlink" width="801" height="801">
	<path d="M244.231 416.225C250.811 416.604 257.531 421.19 263.788 423.315L290.7 431.132C300.575 433.647 310.23 434.74 320.422 434.474C324.317 434.373 328.815 433.412 332.643 433.864C337.915 434.486 343.812 437.309 348.892 438.919C360.183 442.498 371.6 445.609 382.678 449.834C388.502 452.055 393.705 454.996 399.256 457.722C402.309 459.221 405.506 460.38 408.498 462.01C411.474 463.632 415.145 465.958 416.731 469.076C418.815 473.173 416.665 477.865 415.315 481.828C414.085 485.438 412.785 489.012 412.344 492.823C411.873 496.886 412.592 500.29 412.991 504.26C413.447 508.802 413.819 513.276 414.731 517.759C416.325 525.587 419.352 532.983 422.989 540.066C424.883 543.755 427.468 547.674 428.534 551.685C429.09 553.775 429.221 555.657 428.017 557.569C426.894 559.352 424.754 560.535 422.886 561.388C416.8 564.165 410.047 565.612 403.812 568.155C391.116 573.335 378.705 579.709 365.747 584.169C359.759 586.23 353.809 587.607 347.609 588.824L332.844 591.803L295.291 599.308C284.722 601.469 273.774 603.039 263.341 605.727C257.24 607.299 251.764 611.221 245.521 612.589C243.365 613.062 240.337 613.573 238.456 612.15C236.104 610.372 234.887 606.98 233.41 604.466C231.834 601.782 229.982 599.232 227.823 596.988C221.967 590.897 214.774 586.536 207.215 582.879C204.625 581.627 201.668 580.636 199.272 579.058C191.857 574.171 182.22 565.964 180.499 556.922C179.276 550.502 181.295 543.963 183.042 537.843C184.49 532.771 185.894 527.64 186.887 522.456C188.313 515.014 188.591 507.482 189.506 499.984C191.235 485.821 194.486 471.756 199.498 458.385C200.906 454.627 202.469 449.725 204.804 446.541C206.968 443.591 211.318 440.756 214.148 438.333C221.716 431.854 229.213 424.374 237.563 418.936C239.718 417.534 241.706 416.717 244.231 416.225Z"/>
	<path d="M630.839 428.454C637.383 427.943 644.03 428.177 649.761 431.758C651.372 432.766 652.817 434.026 654.414 435.062C659.672 438.477 664.668 441.635 669.249 445.983C688.687 464.439 690.997 489.98 693.356 515.134C694.235 524.514 694.983 533.632 696.948 542.865C697.605 545.952 699.091 548.56 699.939 551.55C703.699 564.813 696.616 576.116 685.98 583.579C682.879 585.755 679.585 587.154 676.273 588.923C668.762 592.936 660.933 597.697 654.864 603.693C651.756 606.764 648.911 609.978 647.263 614.08C646.293 616.494 645.786 618.678 644.485 620.998C635.144 621.554 625.43 617.399 616.551 614.929L596.448 609.801L541.207 597.388L506.061 588.476C495.013 585.327 484.097 581.84 473.648 577.022C470.875 575.744 468.349 574.048 465.62 572.745C462.21 571.116 456.532 569.864 454.697 566.176C453.598 563.968 454.263 561.021 454.977 558.796L455.2 558.119C457.878 549.847 462.772 542.336 465.564 534.141C466.631 531.008 465.9 526.315 466.299 522.886C467.109 515.922 469.067 509.128 469.908 502.169C470.002 501.394 470.626 498.364 470.385 497.765C470.154 497.188 469.145 496.187 468.735 495.651C466.359 492.54 464.115 489.186 463.541 485.227C462.95 481.163 464.166 477.43 466.593 474.16C469.132 470.741 472.865 468.006 476.468 465.817C485.57 460.288 495.878 456.882 505.978 453.692L531.288 446.272C536.055 444.963 541.326 442.707 546.198 442.093C549.356 441.695 553.106 442.582 556.331 442.68C563.932 442.911 571.804 442.279 579.266 440.849C596.687 437.509 613.301 431.131 630.839 428.454Z"/>
</svg>
