<?xml version="1.0" encoding="utf-8" ?>
<svg xmlns="http://www.w3.org/2000/svg" xmlns:xlink="http://www.w3.org/1999/xlink" width="801" height="801">
	<path d="M132.451 383.453C140.622 382.705 148.934 383.49 156.769 385.972C160.631 387.195 164.04 388.889 168.096 389.562C172.848 390.351 177.692 389.923 182.454 389.52C185.343 389.276 190.27 388.493 192.548 390.698C193.536 391.653 193.859 393.362 193.949 394.67C194.475 402.338 191.188 408.981 190.205 416.306C189.743 419.746 190.168 423.319 189.778 426.803C188.5 438.24 185.681 449.241 182.184 460.185L173.674 484.663C171.69 490.136 169.18 495.798 168.249 501.548C167.606 505.524 167.233 509.505 167.127 513.532C166.905 521.987 168.34 536.711 162.196 543.363C159.872 545.879 156.708 547.436 153.313 547.768C150.126 548.079 147.073 547.26 143.929 546.947C138.223 546.379 132.457 545.962 126.721 545.931L75.0948 548.064C69.1194 548.124 62.1568 548.603 56.3753 546.985L55.7336 546.799C53.9278 546.286 52.0428 545.661 50.4943 544.572C50.0049 544.227 49.5465 543.837 49.1181 543.42C48.3679 542.689 47.5977 541.664 47.2844 540.652C46.644 538.582 46.8451 536.096 46.3882 533.925C45.2509 528.52 43.3311 523.198 41.455 518.01C37.0442 505.811 31.3132 494.185 25.7623 482.479C21.6432 473.793 17.1287 464.506 14.6247 455.206C12.6431 447.847 13.44 439.172 12.8183 431.599C12.3674 426.106 11.0444 420.962 10.2643 415.558C9.8558 412.728 11.1131 410.526 12.8484 408.406C15.4073 405.28 19.4205 402.92 23.0018 401.156C30.26 397.581 38.1777 395.04 46.0641 393.296C53.9851 391.545 61.8026 391.279 69.8054 390.273L132.451 383.453Z"/>
	<path d="M123.664 219.567L124.171 219.506C131.687 218.851 140.372 218.393 146.396 223.679C152.756 229.26 155.367 240.376 156.811 248.357C157.299 251.058 157.412 254.526 158.462 257.031C159.549 259.628 161.165 262.199 162.508 264.684L170.463 279.584L177.649 294.514C178.964 297.403 180.473 300.35 181.447 303.368C182.851 307.716 183.026 313.015 183.756 317.566C185.192 326.517 187.31 335.654 187.9 344.698C188.291 350.703 188.079 357.54 183.745 362.228C179.166 367.181 173.377 368.661 167.326 370.993C160.131 373.765 153.626 376.43 145.754 376.763C138.584 377.067 131.018 375.47 123.987 376.444L99.6117 380.969C89.7011 382.66 79.8057 383.51 69.7733 384.033C59.865 384.221 49.6707 383.912 39.9278 381.943C34.7118 380.889 29.3144 378.874 24.0881 378.293C19.7704 377.814 12.3171 380.134 8.86991 377.48C7.03536 376.067 6.49481 373.437 6.2905 371.24C5.55597 363.34 7.18882 355.253 8.24738 347.439C9.89621 335.268 11.146 322.168 14.3307 310.315C18.8264 293.582 25.9993 277.706 29.8515 260.723C30.4057 258.279 31.0303 255.54 31.2321 253.05C31.7956 246.096 30.4456 228.373 34.8709 223.052C36.7614 220.779 38.5845 220.438 41.458 220.143C49.5937 219.307 58.3501 220.735 66.5341 220.924L90.6759 220.688L103.058 220.98C109.918 220.879 116.841 220.238 123.664 219.567Z"/>
</svg>
