<?xml version="1.0" encoding="utf-8" ?>
<svg xmlns="http://www.w3.org/2000/svg" xmlns:xlink="http://www.w3.org/1999/xlink" width="801" height="801">
	<path d="M783.031 423.993L783.053 424.3C783.087 426.805 782.3 429.464 780.654 431.344C778.64 432.564 775.43 431.485 773.215 431.196C769.038 430.652 764.599 431.007 760.384 431.022C754.706 431.042 749.036 430.768 743.394 430.126C737.635 429.471 732.03 428.657 726.363 427.402C719.041 425.782 711.42 423.661 703.963 422.898C698.139 422.303 691.703 422.728 685.826 422.879C676.482 423.12 666.886 424.013 657.615 425.217L622.457 430.245C618.706 430.872 615.057 432.381 611.361 432.874C609.298 433.149 606.804 433.187 604.757 432.795C599.454 431.777 596.181 425.931 593.235 421.939C590.101 417.693 586.545 414.099 581.77 411.735C572.887 407.337 560.218 406.897 550.883 409.911C544.738 411.895 538.87 414.797 532.538 416.202C523.273 418.257 513.984 417.948 504.632 416.744C494.83 415.481 485.127 413.22 475.594 410.646C471.387 409.51 467.073 407.927 462.832 407.052C460.526 406.576 457.998 406.868 455.647 406.621C453.485 406.395 451.284 405.508 449.389 404.465C443.894 401.441 439.959 396.446 436.264 391.526C434.193 388.766 431.588 384.643 428.486 383.017C427.046 382.262 424.976 381.972 423.38 381.748C414.247 380.464 404.869 382.842 397.493 388.358C395.593 389.779 393.315 391.448 392.393 393.7C391.812 395.121 392.02 396.864 392.266 398.349C392.961 402.55 394.831 406.834 396.176 410.879C396.884 413.006 397.801 416.031 397.348 418.276C397.148 419.271 396.689 420.165 395.814 420.687C394.003 421.767 391.167 421.135 389.158 420.916C376.206 419.505 364.023 414.199 351.767 410.092C346.712 408.398 341.577 406.806 336.38 405.605C328.674 403.824 321.155 403.992 313.326 403.696C299.449 403.172 285.712 402.82 271.845 404.002C262.81 404.771 253.879 406.382 245.028 408.298C239.2 409.559 232.566 410.831 227.065 413.163C225.551 413.805 224.165 414.979 222.751 415.827C221.125 416.803 218.71 417.387 216.848 416.764C215.255 416.231 213.538 414.092 212.809 412.625C209.774 406.514 209.426 398.012 209.23 391.309C208.456 364.937 212.175 338.81 212.452 312.503C212.553 302.93 211.48 293.632 211.115 284.102L210.552 248.714L210.04 223.717L210.239 206.736C210.391 203.473 210.52 199.989 211.698 196.906C212.366 195.159 213.274 193.429 215.098 192.7C217.52 191.733 220.408 192.736 222.877 193.093C228.193 193.86 233.393 194.478 238.579 195.979C242.625 197.149 246.369 199.054 250.322 200.462C253.854 201.72 257.695 202.472 261.4 203.017C277.996 205.46 295.361 204.845 312.06 203.757C320.786 203.189 329.75 202.446 338.272 200.426C347.522 198.234 389.502 181.722 394.633 184.188C397.103 185.375 396.756 188.608 396.326 190.882C395.366 195.955 389.044 209.975 391.212 214.118C391.681 215.016 393.234 216.024 394.045 216.683C399.191 220.864 404.767 224.854 411.137 226.922C421.713 230.356 430.799 226.136 436.554 216.829C437.784 214.839 438.575 211.702 440.135 210.071C441.98 208.143 445.463 206.465 447.795 205.181C453.962 201.786 460.398 198.979 467.242 197.253C475.011 195.294 483.059 194.649 490.988 193.632C497.402 192.809 502.977 191.678 509.523 192.184C527.268 193.556 544.745 200.213 562.57 200.229C571.427 200.238 582.445 197.632 590.237 193.49C592.413 192.333 594.816 190.644 595.479 188.13C595.973 186.263 595.863 184.348 596.422 182.454C598.01 181.344 599.654 181.333 601.52 181.254C606.183 181.057 610.54 181.71 615.155 182.096C617.563 182.298 620.005 182.257 622.421 182.262L709.479 184.453L762.277 182.633C768.018 182.437 775.424 181.49 781.06 182.609C781.986 182.793 782.846 183.178 783.505 183.87C787.567 188.139 783.76 209.166 782.889 215.044C782.552 217.324 781.871 219.929 781.99 222.214C782.118 224.674 782.894 227.286 783.343 229.718L786.511 246.89C789.167 262.497 790.991 278.11 791.805 293.922C792.396 305.393 792.295 317.3 791.179 328.731L784.729 373.311L783.278 389.669L783.654 410.938C783.635 415.068 783.908 419.95 783.031 423.993ZM783.031 423.993C783.908 419.95 783.635 415.068 783.654 410.938L783.278 389.669C782.678 390.557 782.851 390.055 782.791 391.113C782.762 391.626 782.726 391.941 782.564 392.428C781.99 394.152 782.603 396.698 782.422 398.544C782.11 401.739 782.265 404.983 782.296 408.206C782.349 413.605 782.415 418.68 783.031 423.993Z"/>
	<path d="M783.031 423.993C782.415 418.68 782.349 413.605 782.296 408.206C782.265 404.983 782.11 401.739 782.422 398.544C782.603 396.698 781.99 394.152 782.564 392.428C782.726 391.941 782.762 391.626 782.791 391.113C782.851 390.055 782.678 390.557 783.278 389.669L783.654 410.938C783.635 415.068 783.908 419.95 783.031 423.993Z"/>
</svg>
