<?xml version="1.0" encoding="utf-8" ?>
<svg xmlns="http://www.w3.org/2000/svg" xmlns:xlink="http://www.w3.org/1999/xlink" width="801" height="801">
	<path d="M76.1149 3.60388L76.503 3.48138C78.5829 3.17259 80.8564 4.02719 82.781 4.73915C86.6424 6.16762 90.5412 7.87135 94.0785 9.99108C97.0858 11.7932 100.401 14.1126 102.57 16.899C104.257 19.0663 105.224 21.7654 106.273 24.28C108.009 28.4398 109.725 32.6155 110.8 37.0058C113.191 46.7658 112.024 56.4469 106.731 65.0325C99.0494 77.4935 87.6872 88.7326 74.2114 94.6775C69.65 96.6898 65.0698 97.7562 60.2503 98.8998C63.6382 99.1561 66.8381 99.5073 69.7841 101.373C70.8731 102.063 71.9951 102.998 73.2081 103.429C79.5094 105.666 88.7241 105.143 93.9417 109.79C96.4853 112.056 96.7545 116.153 97.9702 119.203C99.4 122.79 101.382 126.145 102.978 129.659C106.58 137.592 107.904 146.017 108.056 154.685C108.136 159.274 108.328 165.157 107.273 169.592C106.751 171.787 105.091 174.14 103.958 176.085C100.722 181.642 97.6998 187.253 93.1414 191.881C87.7183 197.385 83.3877 199.911 75.4816 199.945C74.0076 199.797 72.4745 199.608 70.9953 199.739C69.4468 199.877 67.7653 200.31 66.2152 200.102C64.2821 199.842 62.6414 199.125 60.9443 198.202C55.1911 195.074 50.591 189.357 46.3244 184.498C39.4207 176.636 31.1276 168.152 28.3692 157.777C27.541 154.662 26.5363 151.149 26.2444 147.949C25.4619 139.369 28.4208 128.215 32.7172 120.823C34.3887 117.948 36.7579 115.445 39.0502 113.058C45.2402 106.612 51.4978 101.517 60.3031 99.1755C56.3715 99.0402 52.2375 99.1122 48.416 98.0648L47.7158 97.8665C45.9649 97.3842 44.3755 96.8907 42.7819 95.9945C37.0091 92.7479 35.4017 87.3069 32.0818 82.0699C29.5336 78.0505 26.8114 75.5252 25.6094 70.6972C24.1825 64.9656 26.2147 59.3685 26.8802 53.7139C27.159 51.345 26.9893 48.6913 27.563 46.4025C28.31 43.4225 29.8114 40.4372 30.8452 37.5236C33.3231 30.5399 34.9622 23.8444 38.7687 17.4045L39.1293 16.7862C40.3104 14.9206 42.9286 14.2692 44.7825 13.2436C46.7155 12.1741 48.3868 10.7396 50.4149 9.81724C52.9449 8.66658 55.8688 8.10377 58.5651 7.44076L76.1149 3.60388ZM65.1265 120.989C59.3927 123.069 53.4256 129.191 50.9639 134.721C48.1704 140.996 48.4117 148.312 51.0985 154.601L51.7377 155.991C54.1475 161.234 57.1317 168.593 61.8621 172.023C64.8615 174.199 68.2517 175.822 71.3027 177.922C73.4281 178.338 74.9578 177.038 76.6799 175.868C81.542 172.564 85.0266 167.933 86.1438 162.079C88.2148 151.228 83.6274 136.139 77.3643 127.256C75.6844 124.874 72.8467 121.742 69.8959 121.092C68.4203 120.768 66.6315 120.929 65.1265 120.989ZM75.7161 25.544C68.9889 26.5543 59.3737 28.4963 55.2093 34.4015C53.1058 37.3844 52.2103 41.4743 51.3149 44.9712C50.7504 47.1758 49.9184 49.319 49.4127 51.5356C48.4957 55.5557 48.3848 61.7599 49.2398 65.8821C50.2291 70.6516 54.1324 74.6992 58.0803 77.3151C59.2087 78.0627 59.7276 78.2731 61.084 77.8764L61.5061 77.6821C71.6913 72.7848 82.3392 67.3944 86.3107 55.9743C88.4274 49.8875 90.1551 40.1672 87.2408 34.1299C85.7504 31.0426 80.9105 26.3779 77.4404 25.5627C76.874 25.4296 76.2859 25.4996 75.7161 25.544Z"/>
</svg>
