<?xml version="1.0" encoding="utf-8" ?>
<svg xmlns="http://www.w3.org/2000/svg" xmlns:xlink="http://www.w3.org/1999/xlink" width="801" height="801">
	<path d="M188.3 0L195.8 0C198.94 0.943267 202.246 1.35138 205.408 2.28515C212.817 4.47298 220.303 7.54231 227.932 8.78223C232.518 9.52767 239.842 8.39989 243.475 11.354C245.714 13.1751 246.092 15.8266 245.997 18.5779C245.724 26.5586 242.324 34.9878 240.184 42.6495C237.912 50.7817 235.965 59.0092 234.799 67.3772C233.74 74.9707 234.007 82.1578 234.227 89.7605C234.35 94.0097 234.039 98.2694 234.307 102.515C235.025 113.892 237.469 124.922 239.807 136.047C241.708 145.092 244.379 154.258 245.176 163.487C245.525 167.521 246.029 173.981 243.13 177.21C242.148 178.304 240.871 179.167 239.42 179.492C237.425 179.938 235.04 179.729 232.987 179.769C227.903 179.866 223.316 180.433 218.451 182.028C213.698 183.586 209.347 185.854 204.977 188.253C200.383 190.775 194.539 195.082 189.103 195.065C187.845 195.061 186.337 194.832 185.243 194.166C181.003 191.581 178.953 185.939 177.523 181.455C177.009 179.842 176.715 177.856 175.417 176.681C168.966 170.846 161.267 166.502 153.634 162.427C146.686 158.719 139.515 155.169 133.847 149.57C128.62 144.407 126.204 137.59 126.197 130.321C126.184 117.274 131.908 105.718 134.471 93.1827C136.039 85.5137 136.517 77.8991 137.16 70.1226C137.754 62.9397 138.275 55.7118 140.009 48.6936C143.48 34.6417 152.409 22.614 162.506 12.5556C169.437 5.65203 178.993 2.18601 188.3 0Z"/>
	<path d="M308.354 3.25034C309.809 3.19153 311.42 3.29352 312.822 3.68423C319.539 5.55682 326.577 12.0115 332.002 16.251C335.12 18.6878 338.629 21.1182 341.383 23.9525C345.921 28.6233 350.065 34.4149 353.231 40.0728C357.344 47.4228 360.385 55.0435 362.446 63.2084C366.251 78.2913 365.635 93.8614 368.345 109.067C369.806 117.262 374.372 124.019 375.556 132.274C376.159 136.477 376.283 140.994 375.048 145.103C371.259 157.709 355.559 164.477 345.324 171.216C339.812 174.843 334.249 178.933 329.607 183.628C328.038 185.214 327.271 187.102 326.259 189.042C324.077 193.224 320.613 200.46 316.147 202.622C314.467 203.435 312.374 202.886 310.714 202.254C306.356 199.804 302.234 196.956 297.757 194.706C293.226 192.428 288.418 190.815 283.527 189.513C278.896 188.28 273.666 187.415 268.89 187.105C266.216 186.931 263.187 187.377 260.612 186.681C259.322 186.333 257.997 185.603 257.082 184.62C254.913 182.29 254.977 177.818 255.259 174.834C256.776 158.843 262.765 143.288 265.619 127.46C266.824 120.78 267.543 113.763 267.19 106.969C267.051 104.29 266.348 101.62 266.319 98.9517C266.281 95.4345 266.731 91.9119 266.761 88.3916C266.834 79.9455 265.524 71.2884 263.446 63.1217C260.902 53.1308 256.545 43.2075 254.68 33.1336C253.939 29.1344 253.65 24.5352 256.209 21.0972C258.944 17.4217 264.48 16.5079 268.734 15.8132C276.745 14.505 284.576 12.7908 292.162 9.8162C297.44 7.74612 302.785 4.15597 308.354 3.25034Z"/>
</svg>
