<?xml version="1.0" encoding="utf-8" ?>
<svg xmlns="http://www.w3.org/2000/svg" xmlns:xlink="http://www.w3.org/1999/xlink" width="801" height="801">
	<path d="M780.664 114.685C780.329 117.434 779.964 120.312 778.739 122.819C778.181 123.961 777.546 125.104 777.468 126.399C777.298 129.235 778.793 131.88 779.999 134.347C781.627 137.678 783.482 141.567 783.568 145.322C783.612 147.264 782.894 148.948 781.524 150.297C779.587 152.203 776.749 153.385 774.209 154.267C766.492 156.946 758.439 158.684 750.546 160.75L727.019 167.645C724.747 168.292 722.413 168.565 720.15 169.19C715.557 170.457 711.118 172.416 706.608 173.96C699.629 176.349 692.131 178.344 684.805 179.333C671.336 181.151 657.469 182.022 643.879 181.695C636.463 181.517 629.266 180.542 621.795 180.851C615.863 181.097 609.894 182.008 604.028 182.914C600.111 183.518 596.073 184.357 592.097 184.309C589.327 184.276 586.52 183.887 584.569 181.708C580.264 176.898 581.732 165.365 582.054 159.431C549.472 163.989 517.713 174.211 485.802 182.009C472.644 185.224 458.79 188.698 445.296 189.912C442.035 190.205 438.366 187.934 435.246 186.991C432.37 186.121 429.433 185.506 426.469 185.021C416.505 183.392 406.517 184.757 396.514 184.88C391.8 184.939 386.842 184.749 383.382 181.063C381.812 179.392 381.099 176.856 380.741 174.657C379.589 167.56 381.113 159.927 382.469 152.925C382.899 150.703 383.735 148.143 383.594 145.885C383.341 141.828 381.884 137.638 381.19 133.612L377.451 105.833C376.094 91.8201 375.892 77.2756 376.154 63.2011L376.782 45.3932C376.89 36.1813 376.112 26.8553 376.524 17.6857C376.714 13.4653 376.951 7.53753 380.514 4.6508C382.824 2.779 386.633 2.03859 389.553 1.7288C395.516 1.09599 401.277 1.2722 407.245 1.31273L437.454 1.93494C451.069 2.17656 465.887 0.0224249 479.15 3.6533C484.934 5.23674 490.4 7.90451 495.992 10.0474C498.832 11.1355 501.997 11.7613 504.732 13.049C508.017 14.5958 511.139 16.6316 514.38 18.3078C523.772 23.1658 533.33 26.8086 543.925 27.8007C550.24 28.392 556.725 27.4138 562.956 26.4091C565.997 25.9188 570.078 25.7304 572.894 24.5996C582.431 20.7696 576.67 8.96456 583.314 3.98195C587.434 0.892211 593.814 1.9504 598.623 1.96863L612.932 1.9933L635.468 1.93747C652.957 1.34843 670.093 -0.278195 687.264 4.11598C698.806 7.06975 710.65 11.1733 721.764 15.4362C724.973 16.6672 727.905 18.4437 731.042 19.8278C736.023 22.0258 741.486 23.6377 746.921 24.1252C751.715 24.5553 756.355 23.848 760.819 22.0696C762.934 21.2271 765.027 20.0785 766.938 18.8424C769.165 17.4021 773.771 13.5554 776.587 14.2404C778.496 14.7048 779.605 16.1638 780.714 17.6669C785.515 24.1756 787.919 33.5649 786.702 41.5611L786.592 42.2402C785.389 50.3165 780.68 57.402 774.515 62.612C773.109 63.8 770.46 65.3331 769.667 66.9705C766.784 72.9284 773.234 78.0014 776.367 82.2771C777.819 84.2591 778.943 86.4419 779.763 88.7569L780.686 92.0968C781.991 97.4314 781.981 103.027 781.492 108.475C781.309 110.509 781.234 112.728 780.664 114.685ZM780.686 92.0968C780.317 93.5108 780.323 94.2092 780.47 95.6272C780.542 96.319 780.568 96.4877 780.127 96.9961C780.264 100.402 779.648 104.94 780.47 108.143C780.683 108.971 780.601 109.479 780.553 110.294C780.472 111.703 780.488 113.293 780.664 114.685C781.234 112.728 781.309 110.509 781.492 108.475C781.981 103.027 781.991 97.4314 780.686 92.0968Z"/>
	<path d="M780.686 92.0968C781.991 97.4314 781.981 103.027 781.492 108.475C781.309 110.509 781.234 112.728 780.664 114.685C780.488 113.293 780.472 111.703 780.553 110.294C780.601 109.479 780.683 108.971 780.47 108.143C779.648 104.94 780.264 100.402 780.127 96.9961C780.568 96.4877 780.542 96.319 780.47 95.6272C780.323 94.2092 780.317 93.5108 780.686 92.0968Z"/>
</svg>
