<?xml version="1.0" encoding="utf-8" ?>
<svg xmlns="http://www.w3.org/2000/svg" xmlns:xlink="http://www.w3.org/1999/xlink" width="750" height="1125">
	<path d="M0 0L750 0L750 260.826L750 491.017L750 1012.88L750 1124.04C749.392 1124.42 748.795 1124.69 748.087 1124.85C743.554 1125.87 724.461 1125 718.63 1125L634.212 1125L286.685 1125.01L97.0245 1125L34.8662 1125C24.2885 1125 13.5551 1125.42 2.99713 1124.93C1.83726 1124.88 0.984623 1124.67 0 1124.04L0 1012.53L0 490.066L0 260.537L0 0ZM0 490.066L0 1012.53L0 1124.04C0.984623 1124.67 1.83726 1124.88 2.99713 1124.93C13.5551 1125.42 24.2885 1125 34.8662 1125L97.0245 1125L286.685 1125.01L634.212 1125L718.63 1125C724.461 1125 743.554 1125.87 748.087 1124.85C748.795 1124.69 749.392 1124.42 750 1124.04L750 1012.88L750 491.017L600.981 491.363C575.245 491.452 549.475 491.247 523.744 491.686C520.901 491.42 517.293 490.579 514.804 492.303C512.98 497.41 514.011 525.241 514.017 533.086L514.235 697.209C514.244 700.055 515.064 704.911 512.664 706.638C512.416 706.65 512.167 706.659 511.919 706.673C511.199 706.715 510.62 706.853 509.928 707.032C505.522 708.174 500.452 707.286 495.935 707.307L458.799 707.574L286.176 707.794L250.364 707.696C245.566 707.642 240.779 707.161 235.984 707.242L236.001 571.365C236.002 548.42 236.88 525.15 235.912 502.258C235.8 499.607 235.693 495.603 234.24 493.355C230.339 491.117 224.858 490.837 220.418 490.586C212.022 490.113 203.488 490.42 195.079 490.43L150.241 490.452L0 490.066ZM0 0L0 260.537C18.2367 260.105 36.5697 260.474 54.8141 260.626C91.3137 260.932 127.785 261.53 164.288 261.357L195.008 261.23C201.58 261.242 208.273 261.551 214.826 261.059C220.019 260.669 225.324 258.846 230.388 257.659C240.002 255.405 249.982 253.132 259.796 252.009L260.333 251.609L260.441 250.436C259.936 249.913 259.462 249.431 259.057 248.826C254.216 241.597 242.3 247.835 235.593 247.594C232.293 247.476 229.837 244.721 225.64 244.657C212.716 244.461 137.213 246.395 131.615 243.606C130.275 238.161 131.274 212.477 131.284 205.501C131.343 163.428 132.069 121.421 131.768 79.3509C131.714 71.7824 130.052 25.3634 131.615 21.9163L132.048 22.9874C132.87 22.1664 133.531 21.167 134.224 20.2332C136.644 18.8361 193.129 19.7923 200.756 19.807C209.133 19.8232 218.493 20.8954 226.661 18.964C234.571 17.0938 264.764 5.91492 269.69 7.11641C272.908 7.90125 269.002 28.2528 272.113 33.2619C272.197 33.3964 272.287 33.5269 272.374 33.6594L476.779 33.6494C477.002 23.92 476.182 13.7564 477.158 4.09752C482.808 2.60621 519.225 15.0042 526.442 18.0486C535.447 19.5176 545.416 18.6913 554.562 18.6523C576.248 18.5597 598.292 17.6283 619.944 18.5974L619.976 165.283L619.879 218.588C619.859 228.014 620.157 237.583 619.692 246.993L556.702 247.284C545.525 247.29 533.865 246.493 522.758 247.409C521.088 247.547 519.18 247.626 517.948 248.898C516.799 250.084 516.357 252.295 515.897 253.854L516.125 255.369C521.201 258.78 530.498 260.572 536.619 261.069C542.006 261.505 547.627 261.147 553.045 261.126L583.401 261.102L684.378 260.782C706.115 260.592 728.294 259.538 750 260.826L750 0L0 0ZM526.442 18.0486C527.294 19.0784 527.773 19.5523 529.155 19.7697C541.186 21.6612 613.725 18.0277 617.999 22.0526C618.927 35.5461 618.211 49.5045 618.194 63.0419L618.123 140.76L618.047 210.417C618.021 221.592 618.795 233.358 617.828 244.443C613.253 244.643 608.618 244.69 604.078 245.318L611.015 245.58C597.765 246.178 584.396 245.867 571.129 245.871C555.381 245.875 539.575 246.106 523.838 245.54L524.261 245.423C521.642 245.587 518.667 245.533 516.717 247.568C515.806 248.519 515.116 250.062 515.127 251.395C515.134 252.248 515.548 253.092 515.897 253.854C516.357 252.295 516.799 250.084 517.948 248.898C519.18 247.626 521.088 247.547 522.758 247.409C533.865 246.493 545.525 247.29 556.702 247.284L619.692 246.993C620.157 237.583 619.859 228.014 619.879 218.588L619.976 165.283L619.944 18.5974C598.292 17.6283 576.248 18.5597 554.562 18.6523C545.416 18.6913 535.447 19.5176 526.442 18.0486Z"/>
	<path d="M526.442 18.0486C535.447 19.5176 545.416 18.6913 554.562 18.6523C576.248 18.5597 598.292 17.6283 619.944 18.5974L619.976 165.283L619.879 218.588C619.859 228.014 620.157 237.583 619.692 246.993L556.702 247.284C545.525 247.29 533.865 246.493 522.758 247.409C521.088 247.547 519.18 247.626 517.948 248.898C516.799 250.084 516.357 252.295 515.897 253.854C515.548 253.092 515.134 252.248 515.127 251.395C515.116 250.062 515.806 248.519 516.717 247.568C518.667 245.533 521.642 245.587 524.261 245.423L523.838 245.54C539.575 246.106 555.381 245.875 571.129 245.871C584.396 245.867 597.765 246.178 611.015 245.58L604.078 245.318C608.618 244.69 613.253 244.643 617.828 244.443C618.795 233.358 618.021 221.592 618.047 210.417L618.123 140.76L618.194 63.0419C618.211 49.5045 618.927 35.5461 617.999 22.0526C613.725 18.0277 541.186 21.6612 529.155 19.7697C527.773 19.5523 527.294 19.0784 526.442 18.0486Z"/>
	<path d="M130.4 18.9649C151.279 18.2143 172.333 18.7353 193.232 18.7405C202.516 18.7428 212.462 19.5113 221.646 18.2177C229.903 17.0546 247.393 11.0937 256.234 8.27817C260.409 6.94853 265.191 4.75917 269.569 4.41344C270.852 4.31215 271.329 4.25159 272.304 5.05812C273.385 14.1096 272.933 24.5344 272.374 33.6594C272.287 33.5269 272.197 33.3964 272.113 33.2619C269.002 28.2528 272.908 7.90125 269.69 7.11641C264.764 5.91492 234.571 17.0938 226.661 18.964C218.493 20.8954 209.133 19.8232 200.756 19.807C193.129 19.7923 136.644 18.8361 134.224 20.2332C133.531 21.167 132.87 22.1664 132.048 22.9874L131.615 21.9163C130.052 25.3634 131.714 71.7824 131.768 79.3509C132.069 121.421 131.343 163.428 131.284 205.501C131.274 212.477 130.275 238.161 131.615 243.606C137.213 246.395 212.716 244.461 225.64 244.657C229.837 244.721 232.293 247.476 235.593 247.594C242.3 247.835 254.216 241.597 259.057 248.826C259.462 249.431 259.936 249.913 260.441 250.436L260.333 251.609L259.796 252.009C259.359 250.285 255.489 248.268 253.949 247.259C246.601 246.801 242.038 247.636 235.381 250.664C233.238 249.212 230.872 247.499 228.288 247.025C220.216 245.546 210.504 246.968 202.246 247.012C178.491 247.138 154.116 248.053 130.431 246.373C129.701 214.044 130.477 181.532 130.521 149.188L130.4 18.9649Z"/>
	<path d="M0 490.066L150.241 490.452L195.079 490.43C203.488 490.42 212.022 490.113 220.418 490.586C224.858 490.837 230.339 491.117 234.24 493.355C235.693 495.603 235.8 499.607 235.912 502.258C236.88 525.15 236.002 548.42 236.001 571.365L235.984 707.242C240.779 707.161 245.566 707.642 250.364 707.696L286.176 707.794L458.799 707.574L495.935 707.307C500.452 707.286 505.522 708.174 509.928 707.032C510.62 706.853 511.199 706.715 511.919 706.673C512.167 706.659 512.416 706.65 512.664 706.638C515.064 704.911 514.244 700.055 514.235 697.209L514.017 533.086C514.011 525.241 512.98 497.41 514.804 492.303C517.293 490.579 520.901 491.42 523.744 491.686C549.475 491.247 575.245 491.452 600.981 491.363L750 491.017L750 1012.88L750 1124.04C749.392 1124.42 748.795 1124.69 748.087 1124.85C743.554 1125.87 724.461 1125 718.63 1125L634.212 1125L286.685 1125.01L97.0245 1125L34.8662 1125C24.2885 1125 13.5551 1125.42 2.99713 1124.93C1.83726 1124.88 0.984623 1124.67 0 1124.04L0 1012.53L0 490.066ZM0 490.066L0 1012.53C0.919739 1013.11 1.77499 1013.38 2.86247 1013.42C17.5447 1013.99 32.4892 1013.4 47.2161 1013.58C54.8701 1013.67 77.9272 1014.74 83.9774 1013.64C84.4683 1013.55 84.828 1013.34 85.2556 1013.1L85.2249 887.86C88.2439 889.001 145.655 888.753 147.975 887.814C148.367 887.655 148.457 887.567 148.837 887.321L148.871 749.817L457.205 749.883L563.934 750.231C571.725 750.229 594.458 751.366 600.484 749.817L600.648 887.679C601.635 888.246 602.56 888.53 603.688 888.62C610.305 889.151 658.629 889.449 662.909 888.482C663.446 888.36 663.844 888.123 664.309 887.841C664.294 929.59 664.817 971.401 664.27 1013.14C665.195 1013.65 665.843 1013.84 666.895 1013.9C674.418 1014.36 682.108 1014.05 689.655 1014.05L734.862 1013.69C739.008 1013.62 745.055 1014.55 748.898 1013.51C749.34 1013.39 749.659 1013.18 750 1012.88L750 491.017L600.981 491.363C575.245 491.452 549.475 491.247 523.744 491.686C520.901 491.42 517.293 490.579 514.804 492.303C512.98 497.41 514.011 525.241 514.017 533.086L514.235 697.209C514.244 700.055 515.064 704.911 512.664 706.638C512.416 706.65 512.167 706.659 511.919 706.673C511.199 706.715 510.62 706.853 509.928 707.032C505.522 708.174 500.452 707.286 495.935 707.307L458.799 707.574L286.176 707.794L250.364 707.696C245.566 707.642 240.779 707.161 235.984 707.242L236.001 571.365C236.002 548.42 236.88 525.15 235.912 502.258C235.8 499.607 235.693 495.603 234.24 493.355C230.339 491.117 224.858 490.837 220.418 490.586C212.022 490.113 203.488 490.42 195.079 490.43L150.241 490.452L0 490.066Z"/>
	<path d="M235.984 707.242C240.779 707.161 245.566 707.642 250.364 707.696L286.176 707.794L458.799 707.574L495.935 707.307C500.452 707.286 505.522 708.174 509.928 707.032C510.62 706.853 511.199 706.715 511.919 706.673C512.167 706.659 512.416 706.65 512.664 706.638C515.064 704.911 514.244 700.055 514.235 697.209L514.017 533.086C514.011 525.241 512.98 497.41 514.804 492.303C517.293 490.579 520.901 491.42 523.744 491.686C521.201 491.988 518.659 492.28 516.108 492.516C514.62 514.533 515.708 537.189 515.749 559.289C515.84 609.222 516.752 659.261 515.9 709.18L312.922 709.309L263.53 709.43C254.217 709.491 244.1 710.323 234.86 709.079L234.702 560.045L234.472 513.96C234.416 507.221 233.657 500.027 234.24 493.355C235.693 495.603 235.8 499.607 235.912 502.258C236.88 525.15 236.002 548.42 236.001 571.365L235.984 707.242Z"/>
</svg>
