<?xml version="1.0" encoding="utf-8" ?>
<svg xmlns="http://www.w3.org/2000/svg" xmlns:xlink="http://www.w3.org/1999/xlink" width="750" height="1125">
	<path fill="#C10000" d="M362.688 33.2145C384.87 32.4573 407.293 33.1659 429.5 33.1425C445.604 33.1254 463.131 32.1154 479.05 33.2523C478.584 47.7731 478.876 62.3778 478.872 76.9095L478.749 144.688L478.792 193.92C478.832 203.1 477.594 219.029 480.245 227.399C482.594 234.814 490.411 239.504 494.913 245.63C495.169 326.269 493.124 406.868 493.978 487.518C501.781 489.392 509.188 489.224 517.067 488.142L517.07 711.315C474.686 710.727 432.228 711.239 389.835 711.24L234.026 711.315L234.052 489.579C238.46 489.48 242.844 489.842 247.242 489.755C250.274 489.695 253.391 489.254 255.521 486.851C256.64 485.588 257.196 484.243 257.494 482.597C258.759 475.623 258.209 467.745 258.237 460.674L258.31 424.293L257.18 288.306C257.185 275.914 256.842 263.421 257.169 251.041C257.49 238.863 270.739 234.22 271.788 221.959C272.534 213.249 272.022 204.159 272.031 195.403L272.075 144.587L272.145 75.9437C272.18 61.784 272.59 47.5578 271.994 33.4091C302.147 33.2575 332.579 34.4426 362.688 33.2145Z"/>
</svg>
