<?xml version="1.0" encoding="utf-8" ?>
<svg xmlns="http://www.w3.org/2000/svg" xmlns:xlink="http://www.w3.org/1999/xlink" width="750" height="1125">
	<path fill="#002161" d="M479.374 250.152C488.916 250.074 500.288 249.239 509.481 251.886C517.259 254.126 523.009 259.998 531.58 260.319C549.411 260.988 567.311 260.413 585.152 260.605L750 261.577L750 490.048L584.725 490.051C561.781 490.05 538.829 490.416 515.911 489.481C508.605 489.183 501.562 489.213 494.286 488.15C493.788 481.494 494.061 474.629 493.946 467.948C493.686 452.8 493.53 437.683 493.664 422.532C493.988 385.842 494.624 349.133 494.511 312.443C490.281 304.999 488.78 302.529 481.211 298.276C479.081 297.078 476.953 295.924 475.121 294.285C470.453 290.108 467.438 284.633 467.134 278.316C466.635 267.967 472.702 257.653 479.374 250.152Z"/>
	<path fill="#002161" d="M0 261.437C45.9319 260.852 91.8549 261.205 137.789 261.2C162.268 261.197 186.825 261.605 211.284 260.563C220.768 260.159 230.19 258.736 239.285 255.971C245.441 254.099 251.894 251.43 258.264 250.485C264.958 249.492 272.309 250.107 279.062 250.51C286.176 257.826 289.331 267.967 289.23 278.056C289.171 283.928 287.554 288.946 283.224 293.047C279.756 296.331 275.52 298.992 271.779 301.984C262.426 309.465 260.841 314.304 259.456 325.765C258.971 329.785 258.385 333.876 258.244 337.92C257.809 350.358 258.52 362.996 258.604 375.454L258.702 444.178C258.719 454.529 259.968 472.704 258.106 482.283C257.613 484.817 255.868 487.477 254.406 489.587L0 490.041L0 261.437Z"/>
</svg>
