<?xml version="1.0" encoding="utf-8" ?>
<svg xmlns="http://www.w3.org/2000/svg" xmlns:xlink="http://www.w3.org/1999/xlink" width="750" height="1125">
	<path fill="#807F7F" d="M477.023 2.01052C485.371 4.98123 494.351 7.01781 502.888 9.4505C511.247 11.8327 520.23 15.1778 528.827 16.3115C539.257 17.6868 550.752 16.7096 561.314 16.7235L620.916 16.9789L621.023 170.941L621.064 218.808C621.069 227.394 621.486 236.21 620.915 244.771C619.807 245.764 618.611 245.447 617.17 245.446C590.114 245.517 562.896 245.344 535.882 247.003C523.034 247.793 506.737 251.388 494.708 250.983C487.579 250.743 485.211 245.964 476.973 245.409L477.023 2.01052Z"/>
	<path fill="#807F7F" d="M272.147 3.37318C272.619 3.41421 272.311 3.34723 272.966 3.84493C273.534 12.9204 273.069 22.2279 273.067 31.3298L273.071 84.1427L273.11 247.168C267.623 248.034 264.98 248.997 260.613 252.546C248.232 254.297 223.472 249.273 209.11 248.551C185.056 247.342 160.96 248.168 136.9 247.341C134.311 247.282 131.715 247.456 129.13 247.578L129.546 18.027C152.251 18.0394 174.968 18.2068 197.67 17.8517C205.43 17.7303 213.991 18.5267 221.638 17.3338C228.386 16.2813 235.073 13.9613 241.641 12.0749L272.147 3.37318Z"/>
</svg>
