<?xml version="1.0" encoding="utf-8" ?>
<svg xmlns="http://www.w3.org/2000/svg" xmlns:xlink="http://www.w3.org/1999/xlink" width="750" height="1125">
	<path fill="#00B150" d="M85.1095 888.15C89.5651 890.027 172.238 888.937 183.766 888.933L557.936 888.912C568.178 888.912 658.685 889.947 662.732 888.495C663.36 888.27 663.87 887.915 664.403 887.525C664.814 915.983 664.54 944.474 664.531 972.936C664.527 985.477 663.486 999.488 664.731 1011.87C666.295 1012.85 667.786 1012.92 669.583 1013.02C682.387 1013.69 695.618 1012.95 708.463 1012.95C716.961 1012.95 742.048 1013.94 747.808 1012.61C748.651 1012.41 749.331 1011.93 750 1011.41L750 1124.04C749.392 1124.42 748.795 1124.69 748.087 1124.85C743.554 1125.87 724.461 1125 718.63 1125L634.212 1125L286.685 1125.01L97.0245 1125L34.8662 1125C24.2885 1125 13.5551 1125.42 2.99713 1124.93C1.83726 1124.88 0.984623 1124.67 0 1124.04L0 1011.41C0.960586 1012.29 1.91739 1012.65 3.18893 1012.79C13.8537 1013.93 25.3853 1012.98 36.1464 1012.96C51.0303 1012.94 66.1394 1013.56 80.9955 1012.89C82.6742 1012.81 83.6445 1012.68 85.1117 1011.78C84.8914 970.608 84.5571 929.318 85.1095 888.15Z"/>
</svg>
